<?xml version="1.0" encoding="utf-8"?>
<!-- Generator: Adobe Illustrator 21.0.0, SVG Export Plug-In . SVG Version: 6.00 Build 0)  -->
<svg version="1.1" id="Layer_1" xmlns="http://www.w3.org/2000/svg" xmlns:xlink="http://www.w3.org/1999/xlink" x="0px" y="0px"
	 viewBox="0 0 1000 1000" style="enable-background:new 0 0 1000 1000;" xml:space="preserve">
<style type="text/css">
	.st0{fill:#E7E6DD;}
	.st1{fill:#615942;}
	.st2{fill:#969171;}
	.st3{fill:#AFA07A;}
	.st4{fill:#FFFFFF;}
	.st5{fill:#B1D055;}
	.st6{fill:#66933D;}
	.st7{fill:#42862F;}
	.st8{fill:#2A0F11;}
	.st9{fill:none;}
</style>
<g>
	<path class="st0" d="M810.4,179.8v180H189.6v-180c0-10.7,8.6-19.3,19.3-19.3h582.1C801.7,160.5,810.4,169.2,810.4,179.8z"/>
	<g>
		<path class="st1" d="M500,867.9c-13.5,0-27.1-3.5-39.1-10.4l-260-150.1c-24.1-13.9-39.1-39.9-39.1-67.8V163.9
			c0-17.5,14.2-31.7,31.7-31.7h613.1c17.5,0,31.7,14.2,31.7,31.7v475.6c0,27.9-15,53.8-39.1,67.8l-260,150.1
			C527.1,864.4,513.5,867.9,500,867.9z M193.5,142.2c-12,0-21.7,9.7-21.7,21.7v475.6c0,24.3,13.1,46.9,34.1,59.1l260,150.1
			c21,12.2,47.2,12.2,68.2,0l260-150.1c21-12.1,34.1-34.8,34.1-59.1V163.9c0-12-9.7-21.7-21.7-21.7H193.5z"/>
	</g>
	<g>
		<g>
			<path class="st2" d="M791.1,160.5H208.9c-10.7,0-19.3,8.6-19.3,19.3v458.8c0,18.4,9.9,35.5,25.8,44.7l161.4,93.1l3.9-6.4
				l-161.6-93.2c-13.6-7.9-22.1-22.5-22.1-38.2V179.8c0-6.5,5.3-11.8,11.8-11.8h582.1c6.5,0,11.8,5.3,11.8,11.8v458.8
				c0,15.7-8.4,30.3-22.1,38.2L619.2,770l3.9,6.4l161.4-93.1c15.9-9.2,25.8-26.3,25.8-44.7V179.8
				C810.4,169.2,801.7,160.5,791.1,160.5z"/>
		</g>
	</g>
	<rect x="126.5" y="326.4" class="st3" width="747.1" height="188.2"/>
	<g>
		<g>
			<path class="st1" d="M281.9,242.3h-22.5l-3.7,8.1h-8.8l19.3-43.1h8.9l19.3,43.1h-8.9L281.9,242.3z M270.7,216.5l-8,18.3h16
				L270.7,216.5z"/>
			<path class="st1" d="M314.4,250.6H306l-17.9-43.2h9.1l13,33.5l13-33.5h9.1L314.4,250.6z"/>
			<path class="st1" d="M379.6,229.2c-0.1,11.1-6.9,22.3-22.1,22.3c-15.1,0-22.1-10.9-22.1-22.2c0-11.3,7.3-22.7,22.1-22.7
				C372.3,206.5,379.7,217.9,379.6,229.2z M343.4,229.4c0.2,7.1,4,14.6,14.1,14.6c10.1,0,14-7.6,14.1-14.7
				c0.1-7.3-3.9-15.4-14.1-15.4C347.4,213.9,343.2,222.1,343.4,229.4z"/>
			<path class="st1" d="M413.9,207.3h8.1v43.1h-5v0.1l-22.6-29.1v29h-8.1v-43.1h6.6l21.1,26.7V207.3z"/>
			<path class="st1" d="M441.9,250.5v-43.1h8.1v43.1H441.9z"/>
			<path class="st1" d="M485.9,207.3h8.1v43.1h-5v0.1l-22.6-29.1v29h-8.1v-43.1h6.6l21.1,26.7V207.3z"/>
			<path class="st1" d="M528.7,217.8c-1.5-2.5-5.5-4.8-10.2-4.8c-6,0-8.9,2.5-8.9,5.7c0,3.8,4.4,4.8,9.6,5.4
				c9,1.1,17.3,3.4,17.3,13.7c0,9.6-8.5,13.7-18.1,13.7c-8.8,0-15.6-2.7-18.8-10.6l6.8-3.5c1.9,4.7,6.9,6.8,12.1,6.8
				c5.1,0,9.9-1.8,9.9-6.5c0-4.1-4.2-5.7-10-6.3c-8.8-1-16.9-3.4-16.9-13c0-8.9,8.7-12.5,16.7-12.5c6.7,0,13.7,1.9,16.9,8.5
				L528.7,217.8z"/>
			<path class="st1" d="M553.9,214.8h-13.7v-7.4c12.4,0,22.9,0,35.4,0v7.4H562v35.7h-8.1V214.8z"/>
			<path class="st1" d="M580.7,250.5v-43.1h8.1v43.1H580.7z"/>
			<path class="st1" d="M609.5,214.8h-13.7v-7.4c12.4,0,22.9,0,35.4,0v7.4h-13.7v35.7h-8.1V214.8z"/>
			<path class="st1" d="M675.2,207.5v24.7c0,12.7-7.8,19.3-18.6,19.3c-10.3,0-19.1-6.3-19.1-19.3v-24.7h8.1v24.7
				c0,7.8,4.4,11.9,11.1,11.9c6.7,0,10.5-4.5,10.5-11.9v-24.7H675.2z"/>
			<path class="st1" d="M694.3,214.8h-13.7v-7.4c12.4,0,22.9,0,35.4,0v7.4h-13.7v35.7h-8.1V214.8z"/>
			<path class="st1" d="M753.1,250.5h-32.2c0-14.3,0-28.7,0-43.1h32.2v7.9h-24.2v9.9h23.3v7.6h-23.3v9.7h24.2V250.5z"/>
		</g>
	</g>
	<g>
		<g>
			<path class="st2" d="M253.8,276c0,4.3-2.7,8.7-8.6,8.7c-5.9,0-8.6-4.2-8.6-8.6c0-4.4,2.8-8.8,8.6-8.8
				C251,267.2,253.9,271.7,253.8,276z M239.7,276.1c0.1,2.8,1.6,5.7,5.5,5.7c3.9,0,5.4-3,5.5-5.7c0-2.8-1.5-6-5.5-6
				C241.3,270.1,239.6,273.3,239.7,276.1z"/>
			<path class="st2" d="M256.1,284.3v-16.7h12v3h-8.9v4.6h8.4v2.9h-8.4v6.2H256.1z"/>
			<path class="st2" d="M275.2,284.3v-16.7h12v3h-8.9v4.6h8.4v2.9h-8.4v6.2H275.2z"/>
			<path class="st2" d="M304.1,267.6v9.6c0,5-3,7.5-7.3,7.5c-4,0-7.4-2.4-7.4-7.5v-9.6h3.1v9.6c0,3,1.7,4.6,4.3,4.6s4.1-1.7,4.1-4.6
				v-9.6H304.1z"/>
			<path class="st2" d="M318.2,267.5h3.2v16.8h-2v0l-8.8-11.3v11.3h-3.2v-16.8h2.6l8.2,10.4V267.5z"/>
			<path class="st2" d="M339,282.2c-1.7,1.7-3.9,2.5-6.4,2.5c-6.2,0-8.9-4.3-8.9-8.6c0-4.4,2.8-8.8,8.9-8.8c2.3,0,4.4,0.9,6.2,2.6
				l-2.1,2c-1.1-1.1-2.6-1.6-4-1.6c-4,0-5.8,3-5.8,5.8c0,2.8,1.6,5.7,5.8,5.7c1.5,0,3.1-0.6,4.2-1.7L339,282.2z"/>
			<path class="st2" d="M344.9,270.4h-5.3v-2.9c4.8,0,8.9,0,13.8,0v2.9h-5.3v13.9h-3.2V270.4z"/>
			<path class="st2" d="M355.3,284.3v-16.8h3.1v16.8H355.3z"/>
			<path class="st2" d="M378.4,276c0,4.3-2.7,8.7-8.6,8.7c-5.9,0-8.6-4.2-8.6-8.6c0-4.4,2.8-8.8,8.6-8.8
				C375.6,267.2,378.4,271.7,378.4,276z M364.3,276.1c0.1,2.8,1.6,5.7,5.5,5.7c3.9,0,5.4-3,5.5-5.7c0-2.8-1.5-6-5.5-6
				C365.8,270.1,364.2,273.3,364.3,276.1z"/>
			<path class="st2" d="M391.7,267.5h3.2v16.8h-2v0l-8.8-11.3v11.3h-3.2v-16.8h2.6l8.2,10.4V267.5z"/>
			<path class="st2" d="M409.7,281.2h-8.8l-1.4,3.2h-3.4l7.5-16.8h3.4l7.5,16.8h-3.4L409.7,281.2z M405.3,271.1l-3.1,7.1h6.2
				L405.3,271.1z"/>
			<path class="st2" d="M419.4,267.6v13.8h8.6v2.9h-11.8v-16.8H419.4z"/>
			<path class="st2" d="M446.9,281.2h-8.8l-1.4,3.2h-3.4l7.5-16.8h3.4l7.5,16.8h-3.4L446.9,281.2z M442.6,271.1l-3.1,7.1h6.2
				L442.6,271.1z"/>
			<path class="st2" d="M464.2,267.5h3.2v16.8h-2v0l-8.8-11.3v11.3h-3.2v-16.8h2.6l8.2,10.4V267.5z"/>
			<path class="st2" d="M485,275.8c0.1,4.2-2.5,8.5-8.4,8.5c-2.1,0-4.5,0-6.6,0v-16.8c2.1,0,4.5,0,6.6,0
				C482.4,267.6,485,271.7,485,275.8z M473.2,281.3h3.4c3.8,0,5.3-2.8,5.2-5.5c-0.1-2.6-1.6-5.2-5.2-5.2h-3.4V281.3z"/>
			<path class="st2" d="M492,284.3v-16.8h3.1v16.8H492z"/>
			<path class="st2" d="M509.1,267.5h3.2v16.8h-2v0l-8.8-11.3v11.3h-3.2v-16.8h2.6l8.2,10.4V267.5z"/>
			<path class="st2" d="M519.5,270.4h-5.3v-2.9c4.8,0,8.9,0,13.8,0v2.9h-5.3v13.9h-3.2V270.4z"/>
			<path class="st2" d="M542.4,284.3h-12.5c0-5.6,0-11.2,0-16.8h12.5v3.1H533v3.9h9.1v2.9H533v3.8h9.4V284.3z"/>
			<path class="st2" d="M557.3,271.7c-1.1-1.1-2.8-1.7-4.3-1.7c-3.6,0-5.8,2.7-5.8,6.2c0,2.8,1.6,5.6,5.8,5.6c1.3,0,2.5-0.3,3.8-1.3
				v-3h-4.3v-2.8h7.2v7.1c-1.7,1.9-3.7,3-6.7,3c-6.3,0-8.9-4.1-8.9-8.5c0-4.7,2.9-9.1,8.9-9.1c2.2,0,4.5,0.9,6.2,2.6L557.3,271.7z"
				/>
			<path class="st2" d="M576.9,284.3h-3.8l-4.9-5.6h-3v5.6h-3.2v-16.8c2.7,0,5.3,0,8,0c4,0,6,2.7,6,5.6c0,2.3-1.1,4.6-4.2,5.3
				l5.1,5.7V284.3z M565.2,270.5v5.4h4.8c2,0,2.9-1.3,2.9-2.7c0-1.3-0.9-2.7-2.9-2.7H565.2z"/>
			<path class="st2" d="M590.1,281.2h-8.8l-1.4,3.2h-3.4l7.5-16.8h3.4l7.5,16.8h-3.4L590.1,281.2z M585.7,271.1l-3.1,7.1h6.2
				L585.7,271.1z"/>
			<path class="st2" d="M598,270.4h-5.3v-2.9c4.8,0,8.9,0,13.8,0v2.9h-5.3v13.9H598V270.4z"/>
			<path class="st2" d="M608.4,284.3v-16.8h3.1v16.8H608.4z"/>
			<path class="st2" d="M623.6,284.4h-3.3l-7-16.8h3.5l5,13l5.1-13h3.5L623.6,284.4z"/>
			<path class="st2" d="M645,284.3h-12.5c0-5.6,0-11.2,0-16.8H645v3.1h-9.4v3.9h9.1v2.9h-9.1v3.8h9.4V284.3z"/>
			<path class="st2" d="M666.9,272.2l-5.5,7.3h-0.6l-5.3-7.3v12.2h-3.2v-16.8h3.6l5.2,7.2l5.2-7.2h3.6v16.8h-3.2V272.2z"/>
			<path class="st2" d="M685.5,284.3h-12.5c0-5.6,0-11.2,0-16.8h12.5v3.1h-9.4v3.9h9.1v2.9h-9.1v3.8h9.4V284.3z"/>
			<path class="st2" d="M702.7,275.8c0.1,4.2-2.5,8.5-8.4,8.5c-2.1,0-4.5,0-6.6,0v-16.8c2.1,0,4.5,0,6.6,0
				C700,267.6,702.6,271.7,702.7,275.8z M690.8,281.3h3.4c3.8,0,5.3-2.8,5.2-5.5c-0.1-2.6-1.6-5.2-5.2-5.2h-3.4V281.3z"/>
			<path class="st2" d="M705,284.3v-16.8h3.1v16.8H705z"/>
			<path class="st2" d="M725.9,282.2c-1.7,1.7-3.9,2.5-6.4,2.5c-6.2,0-8.9-4.3-8.9-8.6c0-4.4,2.8-8.8,8.9-8.8c2.3,0,4.4,0.9,6.2,2.6
				l-2.1,2c-1.1-1.1-2.6-1.6-4-1.6c-4,0-5.8,3-5.8,5.8c0,2.8,1.6,5.7,5.8,5.7c1.5,0,3.1-0.6,4.2-1.7L725.9,282.2z"/>
			<path class="st2" d="M727.7,284.3v-16.8h3.1v16.8H727.7z"/>
			<path class="st2" d="M744.8,267.5h3.2v16.8h-2v0l-8.8-11.3v11.3h-3.2v-16.8h2.6l8.2,10.4V267.5z"/>
			<path class="st2" d="M763.4,284.3h-12.5c0-5.6,0-11.2,0-16.8h12.5v3.1H754v3.9h9.1v2.9H754v3.8h9.4V284.3z"/>
		</g>
	</g>
	<g>
		<g>
			<path class="st4" d="M304.5,404.5c-4.2-4.1-10.6-6.3-16.1-6.3c-13.5,0-21.7,10.3-21.7,23.3c0,10.4,6,21.1,21.7,21.1
				c5,0,9.3-1.1,14.3-5v-11.2h-16.1v-10.6h27.1v26.6c-6.2,7.1-14.1,11.4-25.2,11.4c-23.7,0-33.4-15.6-33.4-32.2
				c0-17.8,11.1-34.2,33.4-34.2c8.5,0,17,3.2,23.5,9.6L304.5,404.5z"/>
			<path class="st4" d="M378.5,452.3h-14.2l-18.4-21.1h-11.5v21.1h-11.9V389c10,0,20,0.1,30,0.1c14.9,0.1,22.7,10,22.7,20.9
				c0,8.7-4,17.4-16,19.8l19.1,21.6V452.3z M334.5,400.2v20.2h18.1c7.6,0,10.8-5.1,10.8-10.1c0-5-3.3-10.1-10.8-10.1H334.5z"/>
			<path class="st4" d="M428.2,440.4h-33l-5.4,11.9h-12.9l28.3-63.1h13l28.3,63.1h-13L428.2,440.4z M411.7,402.4l-11.7,26.9h23.5
				L411.7,402.4z"/>
			<path class="st4" d="M509.3,420.1c0.3,16-9.5,32.1-31.6,32.1c-7.8,0-17,0-24.8,0v-63.1c7.8,0,17,0,24.8,0
				C499.4,389.1,509.1,404.5,509.3,420.1z M464.8,440.8h13c14.3,0,20-10.5,19.8-20.7c-0.3-9.8-6-19.7-19.8-19.7h-13V440.8z"/>
			<path class="st4" d="M572.6,389.2v36.2c0,18.7-11.5,28.2-27.3,28.2c-15.2,0-28.1-9.2-28.1-28.2v-36.2H529v36.2
				c0,11.4,6.5,17.4,16.3,17.4c9.8,0,15.4-6.6,15.4-17.4v-36.2H572.6z"/>
			<path class="st4" d="M629,440.4h-33l-5.4,11.9h-12.9l28.3-63.1h13l28.3,63.1h-13L629,440.4z M612.5,402.4l-11.7,26.9h23.5
				L612.5,402.4z"/>
			<path class="st4" d="M658.7,399.9h-20v-10.8c18.2,0,33.6,0,52,0v10.8h-20v52.3h-11.9V399.9z"/>
			<path class="st4" d="M744.9,452.3h-47.3c0-21,0-42.1,0-63.1h47.3v11.5h-35.4v14.5h34.2v11.1h-34.2v14.3h35.4V452.3z"/>
		</g>
	</g>
	<g>
		<g>
			<path class="st5" d="M553,575.5c0,0,12.1,5.8,15-12.3c0,0-12.7-4.9-15.4,11.1c0,0,6.9-7.2,11.2-7.9
				C563.8,566.4,557.9,570.1,553,575.5z"/>
			<path class="st6" d="M437.9,689.1c0,0,6.1,11.8-11.7,15.2c0,0-5.2-12.5,10.5-15.5c0,0-6.9,7-7.5,11.3
				C429.2,700,432.6,694.1,437.9,689.1z"/>
			<path class="st7" d="M435.9,685c0,0-5.6,9.9-16.4-1.2c0,0,6.4-9.6,16.1,0.2c0,0-8.3-1.6-11.7,0C424,683.9,429.8,683.6,435.9,685z
				"/>
			<path class="st5" d="M440,686.4c0,0,9.6-1.6,7.9,11.7c0,0-9.9,0.8-8.5-10.9c0,0,3.3,6.4,6.2,7.8
				C445.7,694.9,442.3,691.2,440,686.4z"/>
			<path class="st5" d="M409,674.5c0,0,7.7-4,9.9,7.6c0,0-8.1,3.5-10.2-6.8c0,0,4.6,4.5,7.4,4.9C416.2,680.1,412.3,677.8,409,674.5z
				"/>
			<path class="st6" d="M403.6,674c0,0,7,0.6,3.5,9.6c0,0-7.1-1.2-4-9.1c0,0,1.2,5.1,2.9,6.6C406.1,681,404.4,677.7,403.6,674z"/>
			<path class="st7" d="M398.6,678c0,0,10.2,3.8,1.3,15.7c0,0-10.1-4.7-2.2-15.3c0,0-0.3,8.1,1.7,11
				C399.4,689.5,398.2,683.9,398.6,678z"/>
			<path class="st6" d="M393.2,679.8c0,0,6.3,9.7-8.9,14.1c0,0-5.6-10.4,7.9-14.4c0,0-5.4,6.7-5.6,10.4
				C386.6,690,389.1,684.6,393.2,679.8z"/>
			<path class="st7" d="M388.7,679.4c0,0-4.9,12.4-19.3,1.3c0,0,5.9-12.2,18.8-2.4c0,0-9.9-0.6-13.5,1.9
				C374.7,680.2,381.4,678.8,388.7,679.4z"/>
			<path class="st5" d="M389.7,678.3c0,0-9.9,0.2-6.3-12.8c0,0,10.1,0.6,6.9,12.2c0,0-2.4-6.9-5.1-8.7
				C385.2,668.9,388.1,673.1,389.7,678.3z"/>
			<path class="st6" d="M393.5,676.2c0,0-7.6-2.1-1.9-11.3c0,0,7.6,2.8,2.5,10.9c0,0-0.3-5.9-1.9-7.9
				C392.3,667.9,393.5,671.8,393.5,676.2z"/>
			<path class="st7" d="M384.4,661.6c0,0,2.5,6.3-6.8,7.2c0,0-2.1-6.6,6.2-7.4c0,0-3.9,3.3-4.4,5.4
				C379.4,666.8,381.4,664,384.4,661.6z"/>
			<path class="st5" d="M377.6,659.1c0,0,3.5,8.3-8.8,9.7c0,0-2.9-8.7,8-10c0,0-5.1,4.4-5.7,7.3
				C371.2,666.1,373.8,662.2,377.6,659.1z"/>
			<path class="st7" d="M371.2,657.8c0,0,0.9,6.8-8.4,5.3c0,0-0.4-7,7.9-5.7c0,0-4.6,2.2-5.6,4.2
				C365.1,661.6,367.8,659.3,371.2,657.8z"/>
			<path class="st6" d="M371.1,656.2c0,0-9.5,1.5-7.8-11.5c0,0,9.8-0.8,8.3,10.8c0,0-3.3-6.4-6.1-7.8
				C365.5,647.8,368.8,651.5,371.1,656.2z"/>
			<path class="st6" d="M375.9,656.6c0,0-9-4.5,0.4-14.6c0,0,8.8,5.3,0.4,14.3c0,0,1.1-7.4-0.4-10.3
				C376.4,646,376.9,651.2,375.9,656.6z"/>
			<path class="st7" d="M381.9,658.7c0,0-7.4-5,2.1-12.8c0,0,7.1,5.7-1.2,12.6c0,0,1.8-6.4,0.8-9.1
				C383.6,649.4,383.4,654,381.9,658.7z"/>
			<path class="st5" d="M387,659.8c0,0-4.2-10.1,10.6-11.7c0,0,3.5,10.6-9.7,12.1c0,0,6.1-5.3,6.9-8.8
				C394.9,651.4,391.7,656,387,659.8z"/>
			<path class="st7" d="M393.3,662.7c0,0-0.1-7.4,9.7-4.6c0,0-0.5,7.5-9.2,5.1c0,0,5.2-1.8,6.6-3.8
				C400.3,659.4,397.1,661.5,393.3,662.7z"/>
			<path class="st6" d="M410.5,668.5c0,0-6.6,2.3-7-7.2c0,0,6.8-1.8,7.3,6.6c0,0-3.1-4.1-5.3-4.7
				C405.5,663.2,408.3,665.4,410.5,668.5z"/>
			<path class="st5" d="M411,660.8c0,0-5.7,5.8-11.1-3.9c0,0,6.2-5.4,11.1,3.1c0,0-5.4-2.7-8-2.2C402.9,657.9,407,658.7,411,660.8z"
				/>
			<path class="st7" d="M410.9,655.1c0,0-6.1,3.9-8.8-5.6c0,0,6.5-3.4,8.9,5c0,0-4.1-3.4-6.5-3.5C404.6,650.9,408,652.5,410.9,655.1
				z"/>
			<path class="st6" d="M411.5,652.6c0,0-6.4-4.8,2.5-11.3c0,0,6.1,5.4-1.7,11.2c0,0,2-5.6,1.2-8.1
				C413.4,644.4,413.1,648.5,411.5,652.6z"/>
			<path class="st7" d="M412.9,653.9c0,0,1.2-7.4,10.5-2.9c0,0-1.9,7.5-10.1,3.5c0,0,5.5-0.8,7.3-2.6
				C420.6,651.9,417,653.4,412.9,653.9z"/>
			<path class="st6" d="M413.9,657c0,0,4.4-5,9.3,2.7c0,0-4.9,4.8-9.3-2.1c0,0,4.6,2,6.7,1.5C420.7,659.1,417.3,658.6,413.9,657z"/>
			<path class="st5" d="M416.5,662.6c0,0,0.6-5.9,8.2-2.8c0,0-1.1,6-7.8,3.2c0,0,4.3-0.9,5.6-2.4
				C422.5,660.7,419.8,662.1,416.5,662.6z"/>
			<path class="st7" d="M425.8,664.8c0,0-0.4-4.7-1.8-6.3c0,0.1,0.2,0.5,0.4,1.2c0.1,0.2,0.1,0.4,0.2,0.7v0c0.3,1.2,0.7,2.9,0.8,4.7
				v0c0,0,0,0-0.1,0c-0.3-0.1-1.8-0.6-2.7-2c-0.3-0.5-0.6-1.1-0.6-1.9c0-0.1,0-0.2,0-0.2c0-0.1,0-0.2,0-0.3c0-0.5,0.1-1.1,0.2-1.7
				c0.1-0.2,0.1-0.4,0.2-0.7c0.2-0.7,0.6-1.5,1.1-2.4C423.4,656,429.6,658,425.8,664.8z"/>
			<path class="st6" d="M433.3,664.9c0,0-7.4,0.8-5.6-9.2c0,0,7.6-0.2,6,8.7c0,0-2.3-5-4.4-6.2C429.3,658.1,431.7,661.1,433.3,664.9
				z"/>
			<path class="st5" d="M439.2,665.7c0,0-8.2-1.2-3.4-11.5c0,0,8.2,1.9,4,11c0,0-1-6.1-3-7.9C436.8,657.3,438.6,661.2,439.2,665.7z"
				/>
			<path class="st5" d="M441.5,666.2c0,0-2.9-8.7,9.7-9.2c0,0,2.3,9.1-8.9,9.6c0,0,5.5-4.1,6.4-7
				C448.6,659.6,445.6,663.3,441.5,666.2z"/>
			<path class="st5" d="M366.2,656.8c0,0-7.4,8.7-15.9-4.3c0,0,8.2-8.2,15.8,3.3c0,0-7.8-3.2-11.4-2.2
				C354.7,653.5,360.5,654.3,366.2,656.8z"/>
			<path class="st6" d="M444.2,684.8c0,0,6.5-6,11.8,4.8c0,0-7,5.5-11.8-4c0,0,5.7,3.2,8.6,2.8C452.7,688.4,448.4,687.2,444.2,684.8
				z"/>
			<path class="st6" d="M449.3,654.3c0,0-4.1-9.5-15-0.4c0,0,5,9.4,14.7,1.3c0,0-7.7,0.7-10.6-1.1
				C438.4,654.1,443.7,655,449.3,654.3z"/>
			<path class="st7" d="M442.8,647.6c0,0-1.4-11.2-15.5-5c0,0,2.3,11.3,14.9,5.8c0,0-8.2-1.6-10.7-4.3
				C431.4,644.1,436.7,646.6,442.8,647.6z"/>
			<path class="st5" d="M433.2,638c0,0-8.4-5.1-11.8,7.9c0,0,8.9,4.5,12-7c0,0-5.5,4.8-8.7,5C424.7,643.9,429.2,641.6,433.2,638z"/>
			<path class="st7" d="M422,636.9c0,0-8.2-4.5-11,8c0,0,8.7,4,11.2-7.1c0,0-5.1,4.7-8.2,5.1C414.1,642.8,418.3,640.4,422,636.9z"/>
			<path class="st6" d="M413.2,635.8c0,0-9.6-10.2-19.3,6.4c0,0,10.6,9.6,19.2-5.1c0,0-9.4,4.4-13.9,3.5
				C399.2,640.7,406.4,639.3,413.2,635.8z"/>
			<path class="st7" d="M398.1,626.6c0,0-8.2-5-11.6,7.7c0,0,8.8,4.5,11.8-6.8c0,0-5.5,4.6-8.6,4.8
				C389.7,632.3,394.1,630.1,398.1,626.6z"/>
			<path class="st7" d="M386.5,624.6c0,0-9-7-14.7,7.4c0,0,9.7,6.4,14.8-6.4c0,0-7,4.7-10.8,4.5
				C375.8,630.2,381.4,628.2,386.5,624.6z"/>
			<path class="st5" d="M382.3,620.6c0,0,4.6-10.6-11.1-12.5c0,0-3.8,11.1,10,12.9c0,0-6.4-5.7-7.2-9.4
				C374.2,611.6,377.5,616.5,382.3,620.6z"/>
			<path class="st6" d="M389,620.1c0,0,6.3-6.2-4.3-12c0,0-5.9,6.8,3.5,12c0,0-2.9-5.9-2.4-8.7C385.8,611.4,386.7,615.8,389,620.1z"
				/>
			<path class="st6" d="M377.9,621.9c0,0-7.2-11.2-19,2.6c0,0,8.2,10.8,18.7-1.4c0,0-9.5,2.5-13.6,0.8
				C364,624,370.9,624,377.9,621.9z"/>
			<path class="st7" d="M390.8,607.2c0,0,1.9-9.2-11-8.1c0,0-1.2,9.5,10.2,8.6c0,0-6.1-3.5-7.3-6.3
				C382.7,601.4,386.2,604.7,390.8,607.2z"/>
			<path class="st7" d="M390.6,598.2c0,0,2.7-9.4-10.7-9.3c0,0-2,9.8,9.9,9.8c0,0-6-4.1-7.1-7.1
				C382.8,591.5,386.1,595.3,390.6,598.2z"/>
			<path class="st6" d="M392.3,593.7c0,0,10.8-4.6,0.6-17c0,0-10.6,5.5-1.6,16.5c0,0-0.7-8.7,1.3-11.9
				C392.6,581.3,391.6,587.3,392.3,593.7z"/>
			<path class="st6" d="M393.3,598.5c0,0,9.6,7.1,15.2-8.2c0,0-10.3-6.4-15.3,7.1c0,0,7.2-5.1,11.1-5
				C404.3,592.4,398.5,594.6,393.3,598.5z"/>
			<path class="st5" d="M393.9,602.3c0,0,0.9,12.5,17,6.5c0,0-1.9-12.7-16.2-7.4c0,0,9,2.3,11.6,5.5
				C406.3,606.9,400.6,603.8,393.9,602.3z"/>
			<path class="st7" d="M407.1,623.3c0,0,9.7-4.3,0.4-15.3c0,0-9.5,5.1-1.3,14.9c0,0-0.8-7.8,1-10.8
				C407.2,612.1,406.3,617.5,407.1,623.3z"/>
			<path class="st8" d="M467.3,691c-1.1-1-2-1.8-2.8-2.4c-0.1-0.1-0.2-0.1-0.2-0.2c0.1,0.1,0.3,0.2,0.4,0.3c0.1,0.1,0.1,0.1,0.2,0.2
				c0,0,0,0,0.1,0c0,0,0.1,0.1,0.1,0.1c0.2,0.2,0.5,0.4,0.7,0.6C466.3,690,466.8,690.5,467.3,691z"/>
			<path class="st8" d="M422.4,620.9c-0.5,1-1,1.8-1.5,2.5c-0.2-1.1-0.3-2.3-0.3-3.6C421.7,620.3,422.4,620.9,422.4,620.9z"/>
			<path class="st8" d="M425.3,665.1L425.3,665.1C425.3,665.1,425.3,665.1,425.3,665.1C425.3,665.1,425.3,665.1,425.3,665.1z"/>
			<path class="st8" d="M436,672.6c-1.5-0.4-3.2-0.7-5.2-0.7c0-0.2,0-0.3,0-0.5C430.9,671.4,433.6,671.1,436,672.6z"/>
			<path class="st8" d="M440,574.9c0,2.3-0.3,4.1-0.7,5.6c-0.3-1.8-0.5-3.7-0.5-5.7C439.5,574.8,440,574.9,440,574.9z"/>
			<path class="st8" d="M456.1,588.4L456.1,588.4c-0.2,0.4-0.4,0.8-0.6,1.1l0.5-4.6C456,584.8,456,586.2,456.1,588.4z"/>
			<path class="st8" d="M462.4,665c0,0-0.1,0.2-0.2,0.6c-0.6-0.6-1.3-1.1-1.9-1.7C461,664.2,461.7,664.6,462.4,665z"/>
			<path class="st8" d="M464.7,688.7c-0.1-0.1-0.1-0.1-0.2-0.2c-0.1-0.1-0.2-0.1-0.2-0.2C464.4,688.5,464.6,688.6,464.7,688.7z"/>
			<path class="st8" d="M468.1,671.3c-0.6-0.7-1.3-1.3-1.9-2c0,0-0.1-0.1-0.1-0.1c-0.7-0.7-1.4-1.3-2.1-2c1.3-0.4,2.9-0.6,4.9-0.6
				C468.8,666.6,469.3,669.1,468.1,671.3z"/>
			<path class="st8" d="M481,648.7c-0.2,0.4-0.4,0.7-0.6,1.1c-0.5-0.7-1-1.4-1.5-2.3C480.2,648.1,481,648.7,481,648.7z"/>
			<path class="st8" d="M488.1,624.9c-0.1,0-0.3,0-0.4,0c-0.7-2.2-1.1-4.2-1.2-6.1C488.5,621.5,488.1,624.9,488.1,624.9z"/>
			<path class="st8" d="M498.9,650c-0.1,0.9-0.3,1.6-0.5,2.3c0-0.9,0.1-1.7,0.1-2.4C498.7,649.9,498.9,650,498.9,650z"/>
			<path class="st8" d="M500.5,575.1c-0.8-1-1.8-1.8-2.8-2.6c-0.1-0.1-0.1-0.1-0.2-0.2c-0.9-0.6-1.8-1.1-2.7-1.5c0,0,0,0-0.1,0
				c-13.2-6.2-12.2-14.5-12.2-14.5s1.5,8.1,16.9,11.7c0.1,0.1,0.2,0.2,0.3,0.4c0.1,0.1,0.1,0.1,0.2,0.2c0.1,0.1,0.1,0.1,0.2,0.2h0
				C500.6,571.3,500.8,573.4,500.5,575.1z"/>
			<path class="st8" d="M505,617.8c-0.4,3.3-1.4,5.4-2.5,6.8c0.6-2.3,1-4.7,1.3-7C504.5,617.6,505,617.8,505,617.8z"/>
			<path class="st8" d="M511.5,600.3c-5.3-2.2-3.9-8-3.9-8c1.4,0,2.6,0.2,3.6,0.4c0.1,1.2,0.2,2.4,0.2,3.5c0,0.3,0,0.5,0,0.8
				C511.4,598.2,511.5,599.3,511.5,600.3z"/>
			<path class="st8" d="M524.7,609.5c-0.7-0.1-1.4-0.2-1.9-0.3c0-0.6,0-1.3,0.1-1.9c0,0,0,0,0,0c0-0.1,0-0.2,0-0.2
				c0.1-1,0.3-2,0.5-3C525.7,606.2,524.7,609.5,524.7,609.5z"/>
			<path class="st8" d="M527.5,594.8c-0.6,3-1.7,4.8-3,5.8C525.4,598.2,526.6,596.2,527.5,594.8z"/>
			<path class="st8" d="M538.8,588.6c-0.4,1-0.8,1.9-1.2,2.8c0,0,0,0,0,0c-0.1,0.2-0.2,0.4-0.3,0.6l0,0c-0.9,1.8-1.8,3.3-2.6,4.4
				c-2.5-5.4,2.4-9.3,2.4-9.3C537.8,587.6,538.3,588.1,538.8,588.6z"/>
			<path class="st8" d="M541.4,598.9c-0.4,0.7-0.9,1.2-1.2,1.5C540.5,599.9,541,599.4,541.4,598.9z"/>
			<path class="st7" d="M462.4,665c0,0-0.1,0.2-0.2,0.6c-0.9,2.2-4.6,8.8-14.2,3.7c0,0,7.9-0.9,10.4-3.2c0,0-5.1,1.9-10.9,2.4
				c0,0,1.9-9.2,12.8-4.5C461,664.2,461.7,664.6,462.4,665z"/>
			<path class="st6" d="M468.1,671.3c-1,1.9-3.2,3.6-7.8,3.5c0,0,4.5-3,5.9-5.5c0.1-0.2,0.2-0.3,0.2-0.5c0,0-0.1,0.2-0.3,0.4
				c-0.9,0.9-3.3,3.3-6.4,5.2c0,0-1.5-5.4,4.3-7.2c1.3-0.4,2.9-0.6,4.9-0.6C468.8,666.6,469.3,669.1,468.1,671.3z"/>
			<path class="st6" d="M424.7,620.4c-0.6,1.1-1.2,2.1-1.8,3c-6.6,9.5-13.5,2.9-13.5,2.9c5.4-3,11.1-4.4,11.1-4.4
				c-3.6-0.6-11.1,3.4-11.1,3.4c4.4-8.4,10.1-7.5,13.1-6.1C423.8,619.8,424.7,620.4,424.7,620.4z"/>
			<path class="st6" d="M420.6,615.5c0,0,8.9-7-3.7-15.9c0,0-8.5,7.8,2.7,15.8c0,0-2.9-7.9-1.8-11.4
				C417.7,604,418.3,609.8,420.6,615.5z"/>
			<path class="st5" d="M422,617.6c0,0,8.7,7.2,14.8-7c0,0-9.5-6.6-14.9,6c0,0,7.1-4.5,10.8-4.2C432.8,612.3,427.2,614.1,422,617.6z
				"/>
			<path class="st7" d="M425.7,625.6c0,0,7.1,6.1,12.4-5.6c0,0-7.8-5.7-12.5,4.7c0,0,6-3.6,9-3.3
				C434.7,621.4,430.1,622.8,425.7,625.6z"/>
			<path class="st5" d="M444.3,633.9c0,0,11.5-0.7,6.1-15.4c0,0-11.6,1.6-6.9,14.7c0,0,2.2-8.2,5.1-10.6
				C448.7,622.6,445.8,627.7,444.3,633.9z"/>
			<path class="st7" d="M457.2,642.6c0,0,5.3-11.5-11.8-14c0,0-4.5,12.1,10.7,14.4c0,0-6.9-6.4-7.6-10.5
				C448.5,632.5,452,638,457.2,642.6z"/>
			<path class="st7" d="M481,648.7c-0.2,0.4-0.4,0.7-0.6,1.1c-7,12.5-14.9,5-14.9,5c5.5-3.1,11.2-4.5,11.2-4.5
				c-3.7-0.6-11.2,3.5-11.2,3.5c4.5-8.7,10.3-7.6,13.4-6.2C480.2,648.1,481,648.7,481,648.7z"/>
			<path class="st5" d="M461,640c0,0-1.4,11.6,14.4,8.9c0,0,0.5-11.9-13.5-9.6c0,0,7.9,3.6,9.7,7C471.6,646.3,466.9,642.5,461,640z"
				/>
			<path class="st6" d="M459.8,638c0,0,10.1-0.1,6.1-13.3c0,0-10.3,0.9-6.7,12.7c0,0,2.3-7.2,4.9-9.1
				C464.1,628.2,461.4,632.7,459.8,638z"/>
			<path class="st6" d="M450.7,611.5c0,0-6.3-11.2-18.5,1.3c0,0,7.3,10.9,18.2-0.2c0,0-9.4,1.8-13.2,0
				C437.2,612.7,443.9,613,450.7,611.5z"/>
			<path class="st7" d="M442,602.9c0,0-4-9.3-14.6-0.5c0,0,4.8,9.1,14.3,1.4c0,0-7.5,0.7-10.3-1.1
				C431.3,602.7,436.5,603.6,442,602.9z"/>
			<path class="st6" d="M433,594.7c0,0-6.1-10-16.8,1.9c0,0,7,9.6,16.5-0.8c0,0-8.4,2-11.9,0.5C420.8,596.3,426.8,596.4,433,594.7z"
				/>
			<path class="st6" d="M422.6,587.9c0,0-7.5-6.8-13.5,5.7c0,0,8.2,6.3,13.5-4.7c0,0-6.5,3.7-9.8,3.3
				C412.9,592.2,417.9,590.8,422.6,587.9z"/>
			<path class="st5" d="M426.3,584.5c0,0,9.7-8.8-5.6-18.2c0,0-9.2,9.7,4.4,18.1c0,0-4-8.9-3-13.1C422,571.3,423.2,578,426.3,584.5z
				"/>
			<path class="st7" d="M419.5,583.2c0,0,0.1-12.8-16.7-7.9c0,0,0.9,13,15.8,8.7c0,0-9-3-11.4-6.4
				C407.3,577.5,412.8,581.1,419.5,583.2z"/>
			<path class="st7" d="M438.4,574.7c0,0,0.1-12.8-16.7-8c0,0,0.9,13,15.9,8.8c0,0-9-3-11.4-6.5C426.1,569,431.7,572.6,438.4,574.7z
				"/>
			<path class="st6" d="M439.3,565.8c0,0,8-6-3-14.2c0,0-7.6,6.8,2.1,14c0,0-2.4-7-1.4-10.2C437,555.5,437.4,560.6,439.3,565.8z"/>
			<path class="st7" d="M441.9,570.1c0,0,12,5.1,14-12.6c0,0-12.6-4.2-14.4,11.5c0,0,6.3-7.3,10.5-8.2
				C452,560.8,446.5,564.6,441.9,570.1z"/>
			<path class="st7" d="M442.9,575c0,0,2.7,12.2,17.7,4c0,0-3.7-12.2-17.1-4.9c0,0,9.3,0.9,12.3,3.7
				C455.9,577.7,449.8,575.5,442.9,575z"/>
			<path class="st6" d="M457.3,583.2c0,0,10.2,3.8,11.1-11c0,0-10.6-3-11.6,10.1c0,0,5-6.3,8.4-7.2
				C465.3,575,460.8,578.4,457.3,583.2z"/>
			<path class="st5" d="M457.4,585c0,0-2.7,8.5,9.4,8.8c0,0,2.1-8.8-8.7-9.2c0,0,5.4,3.9,6.2,6.7C464.4,591.3,461.4,587.8,457.4,585
				z"/>
			<path class="st7" d="M460.5,605c0,0,10.3,3.7,11.1-11.3c0,0-10.8-2.9-11.5,10.3c0,0,5-6.4,8.4-7.4
				C468.5,596.7,464.1,600.2,460.5,605z"/>
			<path class="st6" d="M472.5,594.4c0,0,5.1-10-10-12.8c0,0-4.4,10.6,9,13.1c0,0-5.9-5.9-6.4-9.5C465,585.2,468,590.1,472.5,594.4z
				"/>
			<path class="st6" d="M475.4,594.6c0,0,10.6,2.3,9.6-12.5c0,0-11-1.5-10.1,11.6c0,0,4.1-7,7.4-8.3
				C482.3,585.5,478.3,589.4,475.4,594.6z"/>
			<path class="st5" d="M475.5,597.1c0,0-0.7,10.3,13.1,7.2c0,0-0.1-10.5-12.4-7.8c0,0,7.1,2.9,8.9,5.7
				C485.1,602.3,480.8,599.1,475.5,597.1z"/>
			<path class="st6" d="M492.8,628.4c-0.2,0-0.4,0-0.6,0.1c-19.1,1.8-16.5-12.2-16.5-12.2c7.1,3.6,12.6,8.7,12.6,8.7
				c-2-4.3-11.5-9.4-11.5-9.4c7.7-0.8,11.7,1.6,13.8,4.5C493.3,623.8,492.8,628.4,492.8,628.4z"/>
			<path class="st7" d="M488.3,609c0,0,10.5-1,5.2-14.4c0,0-10.6,1.8-5.9,13.7c0,0,1.7-7.7,4.4-9.9C492,598.5,489.5,603.3,488.3,609
				z"/>
			<path class="st6" d="M488.9,613.1c0,0,6.1,8.6,15-2.7c0,0-6.9-8.3-14.9,1.7c0,0,7.5-2.3,10.7-1.2
				C499.8,611,494.3,611.3,488.9,613.1z"/>
			<path class="st6" d="M504.5,603.3c0,0,0.6-10.5-13.5-7.2c0,0,0.3,10.8,12.7,7.8c0,0-7.3-2.8-9.2-5.8
				C494.6,598.2,499,601.4,504.5,603.3z"/>
			<path class="st7" d="M498.6,591c0,0-3.8-8.5-13.5-0.3c0,0,4.5,8.4,13.2,1.1c0,0-6.9,0.7-9.5-0.9
				C488.8,590.9,493.5,591.6,498.6,591z"/>
			<path class="st5" d="M492.5,585c0,0,1.8-11.2-13.6-9.2c0,0-0.9,11.6,12.8,9.8c0,0-7.5-3.9-9.2-7.2
				C482.4,578.4,486.8,582.3,492.5,585z"/>
			<path class="st6" d="M503.1,573.2c-1.2,7.9-9,7.7-9,7.7c1.6-5,4.1-9.3,5.2-11.1c0.4-0.6,0.6-0.9,0.6-0.9
				c-0.3,0.2-0.6,0.4-0.9,0.7c-3.1,3-5.7,10.4-5.7,10.4c-1.7-6.5-0.2-10.3,2.1-12.5c2.5-2.4,5.9-2.9,6.7-3c0.1,0,0.2,0,0.2,0
				c0,0.1,0.1,0.2,0.1,0.3h0C503.3,568.3,503.4,571,503.1,573.2z"/>
			<path class="st7" d="M501.4,587.5c0,0,9.7-3.8,0.9-15c0,0-9.5,4.6-1.8,14.6c0,0-0.4-7.7,1.4-10.5
				C501.9,576.6,500.9,581.8,501.4,587.5z"/>
			<path class="st6" d="M490.8,577.7c0,0,6.5-10.1-9.3-14.7c0,0-5.8,10.8,8.2,14.9c0,0-5.7-6.9-5.8-10.8
				C483.9,567,486.5,572.7,490.8,577.7z"/>
			<path class="st5" d="M483,561.3c0,0-5.2-13.1-20.3-1.2c0,0,6.3,12.9,19.7,2.4c0,0-10.4,0.6-14.2-1.9
				C468.3,560.6,475.4,562,483,561.3z"/>
			<path class="st7" d="M484.5,558.1c0,0,10.1,1.7,8.4-12.2c0,0-10.4-0.9-9,11.4c0,0,3.5-6.7,6.6-8.2
				C490.5,549.2,487,553.1,484.5,558.1z"/>
			<path class="st6" d="M482.8,555.6c0,0,6-11-10.7-14.5c0,0-5.2,11.6,9.6,14.8c0,0-6.4-6.7-6.8-10.8
				C474.9,545.1,478,550.8,482.8,555.6z"/>
			<path class="st7" d="M510,559.3c0,0,12.1,7.7,17.5-11.1c0,0-12.9-6.9-17.8,9.8c0,0,8.3-6.7,12.9-6.9
				C522.7,551.1,516,554.2,510,559.3z"/>
			<path class="st7" d="M510.7,561.1c0,0-4.2,7.4,7.2,10.1c0,0,3.7-7.9-6.4-10.3c0,0,4.3,4.7,4.5,7.5
				C516,568.4,514,564.5,510.7,561.1z"/>
			<path class="st6" d="M510.2,582.3c0,0,8.3,2.2,7.9-9.5c0,0-8.6-1.6-8.3,8.8c0,0,3.5-5.3,6.1-6.3
				C515.9,575.3,512.6,578.3,510.2,582.3z"/>
			<path class="st7" d="M510,595.1c-1.1-1.1-1.7-1.9-1.8-2c0.3,0.9,1,1.9,1.8,2.9c2.2,2.6,5.6,5.1,5.6,5.1c-2.3-0.1-4.1-0.5-5.5-1.1
				c-6.6-2.8-4.9-9.9-4.9-9.9c1.7,0,3.2,0.2,4.5,0.5c9.4,2.2,6.8,10,6.8,10C513.8,598.8,511.5,596.6,510,595.1z"/>
			<path class="st5" d="M518.2,595.4c0,0,9.7-4.7-0.2-15.6c0,0-9.5,5.5-0.8,15.2c0,0-1-7.9,0.7-11
				C517.9,584,517.3,589.6,518.2,595.4z"/>
			<path class="st6" d="M529.5,591.4c-0.1,0.7-0.2,1.4-0.3,2l0,0c-0.7,3.6-2,5.7-3.5,6.9v0c-3.2,2.5-7,0.9-7,0.9
				c3.4-4.1,7.6-7,7.8-7.2c-3.2,0.7-8.2,6.4-8.2,6.4C519.7,588.2,529.5,591.4,529.5,591.4z"/>
			<path class="st7" d="M528.8,591.2c0,0,8.4-6.7-3.6-15.1c0,0-8,7.5,2.6,15c0,0-2.8-7.5-1.8-10.9
				C526.1,580.2,526.7,585.7,528.8,591.2z"/>
			<path class="st6" d="M535.3,578.4c0,0,4-10.6-11.5-11.7c0,0-3.2,11.1,10.6,12.1c0,0-6.6-5.3-7.5-8.8
				C526.8,570,530.4,574.6,535.3,578.4z"/>
			<path class="st7" d="M534.8,566.3c0,0,4.1-11.1-12-12.2c0,0-3.3,11.6,11,12.6c0,0-6.9-5.5-7.9-9.2
				C525.9,557.5,529.6,562.4,534.8,566.3z"/>
			<path class="st5" d="M537,562.2c0,0,9.8-3.5,1.4-15.1c0,0-9.7,4.4-2.3,14.6c0,0-0.2-7.8,1.8-10.6
				C537.9,551.2,536.7,556.5,537,562.2z"/>
			<path class="st6" d="M538.8,566.6c0,0,10.1,5.7,13.6-9.8c0,0-10.7-4.9-13.9,8.8c0,0,6.3-5.8,10.1-6.2
				C548.6,559.3,543.3,562.1,538.8,566.6z"/>
			<path class="st7" d="M541.8,577.2c0,0,8.6,5.8,12.9-7.8c0,0-9.2-5.2-13.1,6.8c0,0,6.1-4.8,9.5-4.8
				C551.1,571.4,546.2,573.6,541.8,577.2z"/>
			<path class="st6" d="M541.2,585.4c0,0,7.6,8.2,15.4-4.9c0,0-8.3-7.8-15.4,3.8c0,0,7.6-3.4,11.1-2.7
				C552.4,581.7,546.7,582.7,541.2,585.4z"/>
			<path class="st5" d="M541.4,598.9C541.4,598.9,541.4,598.9,541.4,598.9c-0.4,0.7-0.9,1.2-1.3,1.6c-0.4,0.4-0.8,0.6-0.8,0.6
				c-1.3-4.1-1.7-8.2-1.7-9.6c0,0,0,0,0,0c0-0.3,0-0.5,0-0.5c-0.1,0.3-0.2,0.7-0.3,1.1l0,0c-0.4,3.3,1.2,8.8,1.2,8.8
				c-1.9-1.6-3.1-3.1-3.7-4.5c-2.5-5.4,2.4-9.3,2.4-9.3c0.6,0.5,1.2,1,1.7,1.5C543.5,593.2,542.7,596.7,541.4,598.9z"/>
			<path class="st7" d="M553.9,587.6c0,0,11.4-0.9,5.8-15.4c0,0-11.5,1.8-6.6,14.7c0,0,2-8.2,4.9-10.6
				C558,576.3,555.2,581.5,553.9,587.6z"/>
			<path class="st6" d="M562.7,583.4c0,0,9.7,1.8,8.3-11.6c0,0-10-1.1-8.8,10.8c0,0,3.5-6.4,6.4-7.7
				C568.6,574.9,565.1,578.6,562.7,583.4z"/>
			<path class="st5" d="M562.1,587.1c0,0,3.2,9.7,14.7,1.7c0,0-4-9.6-14.3-2.6c0,0,7.6,0,10.3,2C572.9,588.3,567.7,587,562.1,587.1z
				"/>
			<path class="st7" d="M558.6,589.4c0,0-8.5,7.5,4.6,15.7c0,0,8-8.2-3.5-15.6c0,0,3.3,7.7,2.4,11.3
				C562.1,600.8,561.2,595,558.6,589.4z"/>
			<path class="st5" d="M545.9,603.7c0,0,6.2,9.4,16.2-2.3c0,0-7-9.1-15.9,1.3c0,0,8.1-2.2,11.5-0.8
				C557.6,601.8,551.8,601.9,545.9,603.7z"/>
			<path class="st6" d="M541.7,626.1c0,0,10.2,4.8,12.6-10.4c0,0-10.8-4.1-12.9,9.4c0,0,5.8-6.1,9.4-6.7
				C550.8,618.4,545.9,621.5,541.7,626.1z"/>
			<path class="st7" d="M543.8,628.8c0,0-2.8,10.9,12.6,10.4c0,0,2-11.3-11.7-10.9c0,0,7.1,4.5,8.4,8
				C553,636.3,549.1,632,543.8,628.8z"/>
			<path class="st7" d="M536.6,670.3c0,0,11-2.4,3.6-15.9c0,0-11,3.3-4.5,15.4c0,0,0.9-8.3,3.4-11.1
				C539.1,658.6,537.1,664.1,536.6,670.3z"/>
			<path class="st6" d="M552.9,661.6c0,0,9-6.8-3.4-16c0,0-8.6,7.6,2.3,15.8c0,0-2.7-7.9-1.6-11.5
				C550.3,650,550.8,655.8,552.9,661.6z"/>
			<path class="st5" d="M560.5,640.9c0,0,4.6-10.3-10.7-12.3c0,0-3.8,10.8,9.7,12.7c0,0-6.2-5.6-6.9-9.2
				C552.6,632.1,555.8,636.9,560.5,640.9z"/>
			<path class="st7" d="M563.2,629.3c0,0,10.8-7.7-3.5-18.9c0,0-10.3,8.7,2.3,18.6c0,0-2.9-9.4-1.5-13.5
				C560.5,615.5,560.9,622.4,563.2,629.3z"/>
			<path class="st5" d="M571.8,612.8c0,0,3.5-9.6-10.5-10.4c0,0-2.7,10,9.6,10.8c0,0-6-4.7-6.9-7.9
				C564,605.3,567.3,609.5,571.8,612.8z"/>
			<path class="st7" d="M574.8,607.2c0,0,13.4,3.8,13.1-15.3c0,0-13.9-2.7-13.8,14.2c0,0,5.8-8.6,10-10.1
				C584.2,595.9,578.8,600.8,574.8,607.2z"/>
			<path class="st5" d="M588.1,610c0,0,17.6-2.5,7.5-24.5c0,0-17.6,3.9-8.8,23.5c0,0,2.3-13,6.5-16.9
				C593.4,592.1,589.6,600.4,588.1,610z"/>
			<path class="st6" d="M598.4,608.3c0,0,15.3,3.1,13.4-18.2c0,0-15.8-1.9-14.2,17c0,0,5.7-10.1,10.4-12.2
				C608,594.9,602.4,600.7,598.4,608.3z"/>
			<path class="st6" d="M570.9,582.2c0,0,7.5,10.4,18.2-3.5c0,0-8.5-10-18,2.3c0,0,9.1-2.9,13-1.5
				C584.2,579.5,577.6,579.9,570.9,582.2z"/>
			<path class="st7" d="M597.5,611.8c0,0-0.4,11.2,14.5,7.3c0,0-0.5-11.4-13.7-8c0,0,7.8,2.8,9.8,5.9
				C608.1,617,603.4,613.7,597.5,611.8z"/>
			<path class="st5" d="M588,616.1c0,0-0.6,9.3,11.8,6.5c0,0-0.1-9.5-11.1-7.1c0,0,6.4,2.6,8,5.2C596.6,620.7,592.8,617.8,588,616.1
				z"/>
			<path class="st5" d="M571.9,630.8c0,0,6,8.9,15.4-2.5c0,0-6.8-8.6-15.2,1.5c0,0,7.7-2.2,11-1C583.1,628.9,577.5,629,571.9,630.8z
				"/>
			<path class="st7" d="M576.9,658.5c0,0,5.3-4.8-3.1-9.8c0,0-5,5.3,2.4,9.8c0,0-2.2-4.8-1.7-7.1C574.5,651.4,575.2,655,576.9,658.5
				z"/>
			<path class="st7" d="M564.7,665.7c0,0-1.3,11.5,14.3,8.7c0,0,0.4-11.8-13.4-9.3c0,0,7.8,3.5,9.6,6.8
				C575.2,671.8,570.5,668.1,564.7,665.7z"/>
			<path class="st7" d="M553.4,675.1c0,0-10.6,4.5-0.6,16.7c0,0,10.4-5.4,1.6-16.3c0,0,0.7,8.5-1.3,11.7
				C553.1,687.3,554.1,681.4,553.4,675.1z"/>
			<path class="st6" d="M566.2,680.2c0,0-6.2,6.8,5.1,12.3c0,0,5.7-7.4-4.3-12.3c0,0,3.4,5.9,3,8.9
				C570.1,689,568.8,684.5,566.2,680.2z"/>
			<path class="st5" d="M571,679.4c0,0,3.4,8.5,13.3,0.7c0,0-4.2-8.4-12.9-1.5c0,0,6.8-0.5,9.3,1.2C580.7,679.8,576,679,571,679.4z"
				/>
			<path class="st7" d="M586.6,642.4c0,0,5.3-8.7-8.1-12.3c0,0-4.7,9.2,7.2,12.5c0,0-4.9-5.7-5.1-9.1
				C580.6,633.6,582.9,638.3,586.6,642.4z"/>
			<path class="st5" d="M585,645.9c0,0-1.2-8.5-11.9-3.6c0,0,1.9,8.6,11.4,4.3c0,0-6.3-1.1-8.2-3.2
				C576.2,643.3,580.3,645.2,585,645.9z"/>
			<path class="st6" d="M589.4,644.2c0,0,8.6,0.5,6-11c0,0-8.8,0.2-6.5,10.4c0,0,2.4-6,4.8-7.4C593.7,636.2,591.1,639.8,589.4,644.2
				z"/>
			<path class="st7" d="M588,648c0,0,6,8.5,14.8-2.6c0,0-6.7-8.1-14.6,1.7c0,0,7.4-2.3,10.6-1.1C598.8,645.9,593.4,646.2,588,648z"
				/>
			<path class="st6" d="M606.3,632.8c0,0,6.3-8.3-7-13.3c0,0-5.7,8.9,6,13.4c0,0-4.4-6.3-4.3-9.7C601,623.2,602.9,628.2,606.3,632.8
				z"/>
			<path class="st5" d="M608.7,631.7c0,0,10.3,7,15.5-9.2c0,0-11-6.3-15.7,8c0,0,7.3-5.6,11.4-5.7
				C619.9,624.9,614,627.4,608.7,631.7z"/>
			<path class="st6" d="M607.1,635.2c0,0,0.1,8.8,11.6,5.3c0,0-0.8-9-11-5.9c0,0,6.2,2,7.9,4.3C615.6,638.9,611.7,636.5,607.1,635.2
				z"/>
			<path class="st5" d="M613.1,652c0,0,11.3-2.2,4-16.2c0,0-11.3,3.2-4.9,15.6c0,0,1-8.5,3.7-11.2
				C615.9,640.2,613.7,645.8,613.1,652z"/>
			<path class="st6" d="M622.1,649c0,0,11.3-0.8,5.9-15.3c0,0-11.4,1.7-6.6,14.6c0,0,2-8.2,4.9-10.5
				C626.2,637.8,623.4,642.9,622.1,649z"/>
			<path class="st7" d="M621.6,652.3c0,0,2.1,11.3,16.1,4.2c0,0-3-11.3-15.5-5c0,0,8.5,1.1,11.2,3.8
				C633.4,655.2,627.9,653,621.6,652.3z"/>
			<path class="st6" d="M617.4,653.8c0,0-5.7,8.4,7.5,12.6c0,0,5.1-9-6.6-12.8c0,0,4.6,6,4.6,9.3C623,662.9,620.9,658.1,617.4,653.8
				z"/>
			<path class="st5" d="M610.3,671c0,0,5.8,9.3,15.7-1.8c0,0-6.6-9-15.5,0.9c0,0,7.9-1.9,11.2-0.5
				C621.8,669.5,616.1,669.4,610.3,671z"/>
			<path class="st7" d="M608,673.3c0,0-9.6,5.1,0.8,15.7c0,0,9.3-5.9,0.1-15.3c0,0,1.4,7.9-0.2,11.1
				C608.7,684.7,609.1,679.1,608,673.3z"/>
			<path class="st6" d="M613.1,675.6c0,0-1.6,11.8,14.5,9.3c0,0,0.7-12.1-13.7-10c0,0,8,3.8,9.8,7.3
				C623.7,682.2,619,678.3,613.1,675.6z"/>
			<path class="st6" d="M604.7,671.7c0,0-5.9-7.3-13.3,3.3c0,0,6.6,7,13.2-2.4c0,0-6.6,2.5-9.5,1.6
				C595,674.3,599.9,673.7,604.7,671.7z"/>
			<path class="st6" d="M572.3,604.3c0,0,7.6-5.3-2.3-13.3c0,0-7.3,6,1.5,13.1c0,0-2-6.6-1-9.5C570.4,594.7,570.6,599.5,572.3,604.3
				z"/>
			<path class="st6" d="M512.4,617.2c0,0,7.1,8.4,15.4-4.2c0,0-7.9-8-15.3,3.2c0,0,7.6-3.1,11-2.2
				C523.6,614,517.9,614.8,512.4,617.2z"/>
			<path class="st6" d="M508,633c0,0,10.5,6.7,15.1-9.6c0,0-11.2-5.9-15.4,8.5c0,0,7.1-5.8,11.2-6C519,625.8,513.2,628.6,508,633z"
				/>
			<path class="st5" d="M523,649.9c0,0,9-9.1-6.4-17.3c0,0-8.4,10,5.2,17.3c0,0-4.4-8.4-3.7-12.6C518.1,637.3,519.6,643.8,523,649.9
				z"/>
			<path class="st7" d="M531.2,631.7c0,0,2.1-12.6-15.2-10.5c0,0-1.2,13,14.2,11.2c0,0-8.4-4.4-10.2-8.2
				C520,624.2,524.9,628.6,531.2,631.7z"/>
			<path class="st7" d="M527.8,612.7c-1-0.1-2-0.2-2.8-0.4c-9.5-2.1-6.5-9.5-6.5-9.5c3.3,2.6,5.8,5.7,6.6,6.8c0,0,0,0,0,0
				c0.2,0.2,0.3,0.4,0.3,0.4c-0.1-0.2-0.1-0.5-0.2-0.7c-1.3-2.9-5.8-6.8-5.8-6.8c3.2,0.3,5.3,1.3,6.6,2.5
				C529.3,608,527.8,612.7,527.8,612.7z"/>
			<path class="st5" d="M491.6,564.1c0,0,8.8,3.5,10-9.4c0,0-9.2-2.9-10.3,8.5c0,0,4.5-5.4,7.5-6.1
				C498.8,557.2,494.8,560,491.6,564.1z"/>
			<path class="st6" d="M506.9,559.9c0,0,4.6-10.7-11.1-12.6c0,0-3.8,11.2,10.1,13c0,0-6.5-5.7-7.2-9.4
				C498.7,550.9,502.1,555.9,506.9,559.9z"/>
			<path class="st7" d="M505,617.8c-0.4,3.3-1.4,5.4-2.5,6.8c-3,3.7-7.3,1.7-7.3,1.7c3.1-3.6,6.8-6.1,7.1-6.3
				c-2.9,0.6-7.4,5.5-7.4,5.5c1.2-8.3,6.5-8.4,9-8v0C504.5,617.6,505,617.8,505,617.8z"/>
			<path class="st6" d="M489.9,646.4c0,0,10.8,3.3,10.9-12.1c0,0-11.2-2.5-11.4,11.2c0,0,4.8-6.8,8.3-8
				C497.7,637.5,493.3,641.3,489.9,646.4z"/>
			<path class="st7" d="M479.3,631.7c0,0,5.5,9.6,15.9-1.3c0,0-6.3-9.3-15.6,0.3c0,0,8-1.6,11.3-0.1
				C490.9,630.6,485.2,630.3,479.3,631.7z"/>
			<path class="st7" d="M473.6,587.3c0,0,10.3-3.4,1.8-15.5c0,0-10.1,4.3-2.7,15.1c0,0,0-8,2.1-10.9
				C474.8,576,473.4,581.4,473.6,587.3z"/>
			<path class="st6" d="M456.1,588.4L456.1,588.4c-0.2,0.4-0.4,0.8-0.6,1.1c-2,2.7-5.3,2.8-5.3,2.8c1.3-5.4,3.9-9.9,3.9-9.9
				c-2.6,2-4.5,9.3-4.5,9.3c-2.3-6.7,0.1-10,2.5-11.5c1.8-1.2,3.6-1.4,3.6-1.4c0,0,0,0.1,0,0.1C457.2,583.4,457,586.4,456.1,588.4z"
				/>
			<path class="st6" d="M433.1,674.3c0,0,3.2,3.5,5.5,7.9c0,0-8.7,1.6-7.8-10.2c0-0.2,0-0.3,0-0.5c0,0,2.8-0.3,5.1,1.2c0,0,0,0,0,0
				c0,0,0,0,0,0c1.9,1.3,3.5,3.8,3.1,8.8C439.1,681.5,435.8,675.5,433.1,674.3z"/>
			<path class="st5" d="M440,574.9c0,2.3-0.3,4.1-0.7,5.6v0c-2.3,7.4-9,5.4-9,5.4c3-4.6,7-8.1,7-8.1c-3.1,1.1-7.4,7.2-7.4,7.2
				c0-4.9,1.6-7.5,3.6-8.8c0.9-0.7,1.9-1,2.9-1.2h0c0.7-0.1,1.3-0.2,1.9-0.2h0.3c0.1,0,0.2,0,0.3,0C439.5,574.8,440,574.9,440,574.9
				z"/>
			<path class="st9" d="M503,568.7c-1.3-0.2-2.5-0.5-3.7-0.7c-15.3-3.6-16.9-11.7-16.9-11.7"/>
			<path class="st8" d="M602.8,660c0,0-3.2-18.7,5.2-28.5c0,0-5.9,18-1.8,27L602.8,660z"/>
		</g>
		<polyline class="st9" points="454.9,814.5 454.9,814.5 454.9,814.5 		"/>
		<path class="st8" d="M611.7,675.2c-17.9-15.7-46.8-11.5-46.8-11.5c-2.5,3.1-5.4,5.8-5.4,5.8c2.9,6.7,10.9,9.8,10.9,9.8
			c-7.5,1.9-13.6-6.8-13.6-6.8c-14.2,9.8-29.5,9.3-29.5,9.3c0.5,12-3.4,21.6-8.1,28.6c-4.6,6.9-7.3,15.1-7.7,23.4
			c-0.2,3.3-0.2,6.7-0.2,10.1c0.1,19,2.7,28.1,5,43.4c3.2,13.1,14.4,22.2,27.8,32.7c-0.2-0.2-1.3-0.1-1.7-0.1
			c-0.8-0.1-1.5-0.2-2.3-0.3c-8-1.3-15.6-4.1-23.3-6.5c-6.3-1.9-13-2.1-19.5-2c-5.7,0-11.8,0.4-17.1,2.6c-2.4,1-4.4,2.5-6.9,3.3
			c-1.2,0.4-2.4,0.7-3.6,0.8c-5.4,0.7-10.3-0.9-12.9-2.1c-0.1,0-0.1-0.1-0.2-0.1c-0.1,0-0.1-0.1-0.2-0.1c-0.1,0-0.1-0.1-0.2-0.1
			c-0.1-0.1-0.3-0.1-0.4-0.2c0,0-0.1,0-0.1-0.1c-0.1-0.1-0.2-0.1-0.3-0.2c0,0-0.1,0-0.1-0.1c-0.1,0-0.1-0.1-0.2-0.1
			c-0.1-0.1-0.2-0.1-0.3-0.2c-0.1,0-0.1,0-0.1-0.1c20.6-1,25.6-18.4,26.1-20c0,0,0,0,0-0.1c0,0,0,0,0-0.1c5.7-25.4,5.9-35.5,5-50.6
			c-0.7-11.8-2.2-19.1-2.3-19.7c0,0,0,0,0,0c-0.4-4-1.3-7.7-2.4-11.1c-3.5-10.6-9.8-17.9-14-21.9l0,0c-0.5-0.5-1-0.9-1.5-1.4
			c-0.2-0.2-0.4-0.4-0.7-0.6c0,0-0.1-0.1-0.1-0.1c0,0,0,0-0.1,0c-0.1-0.1-0.1-0.1-0.2-0.2c-0.1-0.1-0.3-0.2-0.4-0.3
			c0,0-0.1-0.1-0.1-0.1c-0.1-0.1-0.2-0.2-0.3-0.3c-0.1-0.1-0.2-0.2-0.3-0.2c-0.5-0.4-0.7-0.5-0.7-0.5c-1-0.7-2-1.4-3.2-2
			c-6.7-3.8-15.1-3.5-21.3,1c-0.3,0.2-0.5,0.4-0.8,0.6c0,0-0.3-4,7.6-8.4c0,0-2.7-4.1-9.2-5.8c0,0,0,0,0,0c-2.3-1.5-5.1-1.2-5.1-1.2
			c0,0.2,0,0.4,0,0.5c-0.7,0-1.4,0-2.2,0c-0.7,0-1.4,0.1-2.2,0.2c-3.4,0.4-14.8,1.8-23.5,1.4c0,0-4.9,7-14.1,5.3
			c0,0,8.5-2.5,10.3-7.4c0,0-1.3-1.5-3.9-3.5c-1.1-0.8-2.4-1.8-3.8-2.8c-5.3-3.4-13.1-7.3-23.1-8.7c0,0,17.4,0.5,28.5,9.3
			c2.7,2.1,6,3.3,9.4,3.4c2.7,0.1,6.1,0,9.3-0.8c0,0-7.4-6.5-3.8-15.5c0,0,3.1,12.2,8.9,12.4c0,0,1.8-0.2,4.6-0.3c0,0,0.1,0,0.1,0v0
			c6.3-0.3,17.3,0.1,23,4.9c1.5,1.3,3.1,2.4,4.9,3.2c1.3,0.5,2.8,1,4.5,1.3c2.4,0.4,4.7,1,6.8,2.1c7,3,12.5,8.7,16.3,14.1
			c-1.1-3-2.5-5.8-4.3-8.5c-2.2-3.4-5-7.1-8.5-10.8c1.2-2.2,0.7-4.7,0.7-4.7c-2,0-3.6,0.2-4.9,0.6c-0.6-0.5-1.2-1-1.8-1.6
			c0.2-0.4,0.2-0.6,0.2-0.6c-0.8-0.4-1.5-0.8-2.2-1c-3.4-3-6.6-6.2-9.6-9.6c-3.8-4.4-8.4-10.2-11.9-15.8c-0.8-1.3-2.2-2-3.7-2
			c-7,0.1-28.4-0.1-35-9.5c-0.7-1-1.9-1.7-3.1-2l-17.2-3.1l16.5-1.5c0,0-6.5-11-4.3-26.1c0,0,2.1,37.9,32.5,36.8c0,0-2-1.9-3.2-5.8
			c-0.2-0.6-0.3-1.2-0.4-1.9c0.5-0.7,1-1.6,1.5-2.5c0,0-0.7-0.6-1.8-1.1c0-0.4,0-0.8,0-1.3c0-0.6,0.1-1.3,0.2-2c0,0,0.3,0.9,0.9,2.3
			c0.4,1.1,1,2.4,1.7,3.8c1.9,3.8,4.7,8,7.6,8.2h8.6c1.1,0,2.2,0.6,2.8,1.5c0.9,1.3,2.2,3.2,3.7,5.3c0,0,0,0,0,0
			c0.3,0.4,0.6,0.8,0.9,1.2c3.2,4.2,7,8.5,9.4,9c0,0,0.4-5.2,3.2-9.5c0,0,0.6,4.7,0.6,8.8c-0.1,3.1,1.5,6,4.2,7.6
			c4.2,2.5,10.2,6.5,14.4,10.8c1.2,1.2,3.2,0.8,3.8-0.7c0.5-1.4,1-3.2,1-5.4c0-3.4-1.2-6.8-3.2-9.6c0.2-0.3,0.4-0.7,0.6-1.1
			c0,0-0.8-0.7-2.1-1.3c-3.2-5.1-7.5-13.4-9.5-20.7c-0.8-3.2-2.8-5.9-5.5-7.8c-5.8-4.1-16.2-11-23.3-19.1c-3.1-3.6-6.7-6.8-10.7-9.3
			c-3.2-2-7-4-10.4-4.7c0,0,12.8-3.3,25.4,11.1c-0.2-0.2-4.3-6.8-5.8-16.5c0.4-1.5,0.7-3.3,0.7-5.6c0,0-0.5-0.1-1.2-0.1
			c-0.1-2.5,0.1-5.2,0.6-8c0,0,4,23.1,15.2,30.5l0.9-7.8c0.2-0.3,0.5-0.7,0.6-1.1c0.4,7.1,2.4,22.5,12,24.5c0,0,5.6-13.9,5.6-23.1
			c0,0,1.8,14.9,1.3,28.5c-0.2,4.5,0.9,8.9,3.2,12.7c2.4,3.9,5.8,9,9.8,13.6c1.8,2.1,3.1,4.5,3.7,7.2c0.8,3.3,1.7,8.1,1.9,13.9v0.9
			c0,8.5,2.1,16.9,6,24.4c0.4-0.3,0.7-0.7,1-1c9.3-9.7,6.6-16,6.5-16.3c0,0,0,0,0,0c-0.1-0.5-0.2-0.9-0.3-1.3c-0.5-1.6-1.6-3-3-4
			c-5.3-4-5.7-11.8-5.7-11.8c0.1-1.6,0.2-3.1,0.3-4.4c0,0,0,0,0,0c0.2-0.6,0.4-1.4,0.5-2.3c0,0-0.2-0.1-0.4-0.1
			c0.1-2.5,0-4.5-0.1-6.1c-0.2-3.1-0.7-4.9-1.1-5.8c0-0.1-0.1-0.1-0.1-0.2c-0.3-0.8-0.6-0.9-0.6-0.9c-0.7-0.6-1.4-1.1-2-1.7
			c-0.8-0.7-1.4-1.4-2.1-2.1c-0.7-0.8-1.3-1.6-1.8-2.3c0-0.1-0.1-0.1-0.1-0.2c-0.4-0.6-0.8-1.2-1.2-1.8c-0.4-0.7-0.8-1.5-1.1-2.2
			c-0.2-0.5-0.4-1-0.6-1.5c0.1,0,0.3,0,0.4,0c0,0,0,0,0,0c0,0,0-0.1,0-0.1c0-0.7,0.1-3.6-1.6-5.9c0-0.7,0-1.4,0-2.1
			c0.1-4.3,1.4-7.3,1.4-7.3c0.1,3.9,1,7.2,2.2,10c0.6,1.3,1.3,2.6,2,3.6c3.7,5.5,8.5,7.6,8.5,7.6c0.8-1.9,1.4-4,1.9-6.1
			c1.1-1.4,2-3.5,2.5-6.8c0,0-0.4-0.2-1.2-0.3c1.6-11.5,0.9-22.8,0.9-22.8c-7.9-3.9-12.4-14.1-12.6-14.7c4,6.3,12.8,9.9,12.8,9.9
			c0.3-1.9,0.3-3.7,0-5.4c-0.4-3.1-1.7-5.7-3.1-7.7c0,0,0,0,0-0.1c0,0,0,0,0,0c-0.4-0.6-0.8-1.1-1.2-1.5c0,0-0.1-0.1-0.1-0.1
			c0.1-0.4,0.1-0.9,0.1-1.4c0-1-0.1-2.3-0.4-3.6c-0.1-0.4-0.2-0.9-0.3-1.3c0.9,0.7,2.1,0.7,3,0c0,0,0.1-0.1,0.1-0.1
			c3.7-3.3,5.6-11.6,5.6-11.6c2.9,7.3-3,14.1-3,14.1c3.1,6.1,4.6,13.4,5.2,19.9c0.1,0.6,0.1,1.2,0.2,1.7c-1-0.2-2.2-0.4-3.6-0.4
			c0,0-1.4,5.7,3.9,8v0.3c0,4.6-0.3,7.6-0.3,7.6c6.5-3.7,6.6-12,6.6-12.5c0.9,8.1-2.2,15-4.6,18.9c-2.4,4.1-4.3,8.4-5.3,13
			c-2.7,12.2-1.5,24.6,5.2,25.8c8.5,1.6,15.4-8.9,15.4-8.9c2.8-3.8,3.7-7.6,3.8-10.9c0.1-4.6-1.8-9-4.8-12.5
			c-1.2-1.4-2.2-2.8-2.9-4.2c-0.5-1-0.9-1.9-1.1-2.9c0,0,0,0,0,0c-0.2-0.8-0.4-1.5-0.5-2.3c-0.1-0.4-0.1-0.9-0.1-1.3
			c0-0.4,0-0.8,0-1.2c0.6,0.1,1.2,0.2,1.9,0.3c0,0,0-0.1,0.1-0.3c0-0.1,0.1-0.3,0.1-0.5c0.2-1.1,0.2-3.1-1.5-4.6
			c0.1-0.2,0.1-0.4,0.2-0.7c0.2-0.8,0.4-1.5,0.7-2.2c0.1-0.2,0.2-0.4,0.2-0.6c1.3-1,2.4-2.8,3-5.8c0.5-0.8,1.2-1.6,1.9-2.3
			c0.2-0.3,0.5-0.5,0.8-0.8c8.3-7.8,5.6-27.8,5.6-27.8c6.5,9.1,5.5,18.1,3.1,24.6c-0.5-0.5-1.1-1-1.7-1.5c0,0-4.9,3.9-2.4,9.3
			c-1,1.5-1.8,2.3-1.8,2.3c-7.8,9.6,0,14.6,0,14.6c1.9-5.1,4.4-9.3,7.1-12.9c0.2-0.2,0.5-0.5,0.8-0.9c0.1-0.1,0.1-0.1,0.2-0.2
			c0.1-0.1,0.2-0.3,0.3-0.4c0,0,0,0,0,0c0,0,0,0,0,0c10.3-12.2,23.6-15,24.1-15.1c-21.5,12.1-29.1,35.2-29.1,35.2
			c5.1,4.4,6.1,12.7,6.4,16c0.1,0.7,0.1,1.5,0,2.2c-1.1,13.4-22.3,26.5-22.3,26.5c3.9,1.7,5.2,9.3,5.2,9.3
			c14.2,0.6,25.5-7.3,31.6-12.7c2.9-2.6,4.3-6.4,3.9-10.3c-1.6-15.8,6.6-25.1,6.6-25.1c5.7-5.9,4.6-19.9,4.6-19.9
			c2.6,2.8,3.5,11.7,3.5,11.7c8.9-9.2,26.6-7.4,26.6-7.4c-34,8.2-36.8,33-36.5,42.7c0.1,3.2,2.4,5.9,5.5,6.4
			c2.7,0.4,2.9,0.8,5.4,0.7c5.2-0.2,10.4-16.3,10.4-16.3c2.8,9-4.4,17.5-4.4,17.5c3.7,0.4,15.6,3.5,15.6,3.5
			c1.3-1.7,2.8-3.3,4.2-4.6c0.9-0.9,1.9-1.7,2.9-2.4c9.9-7.3,20.5-7.3,20.5-7.3c-14.6,3.1-23.7,16.2-23.7,16.2
			C608.6,668.7,611.6,675,611.7,675.2z"/>
	</g>
</g>
</svg>
