<?xml version="1.0" encoding="utf-8"?>
<!-- Generator: Adobe Illustrator 23.0.1, SVG Export Plug-In . SVG Version: 6.00 Build 0)  -->
<svg version="1.1" id="Layer_2" xmlns="http://www.w3.org/2000/svg" xmlns:xlink="http://www.w3.org/1999/xlink" x="0px" y="0px"
	 viewBox="0 0 162.11 47" style="enable-background:new 0 0 162.11 47;" xml:space="preserve">
<style type="text/css">
	.st0{fill:#215EFE;}
	.st1{fill:#0F80FF;}
</style>
<g>
	<path class="st0" d="M30.27,15.48h2.43l5.75,15.86H36.1l-1.61-4.75h-6.27l-1.72,4.75h-2.2L30.27,15.48z M33.8,24.84l-2.41-7.01
		l-2.56,7.01H33.8z"/>
	<path class="st0" d="M40.71,19.77l3.09,9.41l3.23-9.41h2.13l-4.36,11.56h-2.07l-4.26-11.56H40.71z"/>
	<path class="st0" d="M59.26,20.93c1.03,0.99,1.54,2.45,1.54,4.38c0,1.86-0.45,3.4-1.36,4.62c-0.91,1.22-2.31,1.82-4.22,1.82
		c-1.59,0-2.85-0.54-3.79-1.61c-0.94-1.08-1.4-2.52-1.4-4.33c0-1.94,0.49-3.49,1.48-4.64c0.99-1.15,2.31-1.73,3.97-1.73
		C56.97,19.44,58.23,19.93,59.26,20.93z M58.05,28.62c0.48-0.98,0.72-2.06,0.72-3.25c0-1.08-0.17-1.96-0.52-2.63
		c-0.55-1.06-1.49-1.6-2.83-1.6c-1.19,0-2.05,0.45-2.59,1.36c-0.54,0.91-0.81,2-0.81,3.28c0,1.23,0.27,2.26,0.81,3.08
		c0.54,0.82,1.4,1.23,2.57,1.23C56.69,30.08,57.58,29.59,58.05,28.62z"/>
	<path class="st0" d="M63.11,19.77h1.85v1.64c0.55-0.68,1.13-1.16,1.74-1.46c0.61-0.3,1.29-0.44,2.04-0.44
		c1.64,0,2.75,0.57,3.32,1.72c0.32,0.63,0.47,1.52,0.47,2.69v7.42h-1.98v-7.29c0-0.71-0.1-1.27-0.31-1.71
		c-0.35-0.72-0.97-1.08-1.88-1.08c-0.46,0-0.84,0.05-1.13,0.14c-0.53,0.16-1,0.47-1.4,0.95c-0.32,0.38-0.53,0.78-0.63,1.18
		c-0.1,0.41-0.15,0.99-0.15,1.74v6.06h-1.94V19.77z"/>
	<g>
		<path class="st0" d="M17,24.31c-0.19,0-0.35-0.1-0.39-0.25l-0.27-0.87l-0.98,3.91c-0.03,0.13-0.18,0.23-0.34,0.23h0
			c-0.17,0-0.31-0.1-0.34-0.23l-1.45-6.3l-0.88,3.25c-0.04,0.15-0.2,0.26-0.4,0.26H8.89c0.82,0.77,6.4,5.95,7.33,6.87
			c0.03-0.04,6.12-5.71,7.23-6.87H17z"/>
		<path class="st0" d="M25.37,18.29c-0.73-2.03-2.78-3.26-5.06-3.01c-1.23,0.13-2.24,0.67-3.05,1.55c-0.39,0.42-0.64,0.92-0.9,1.42
			c-0.04,0.08-0.08,0.15-0.13,0.24c-0.13-0.25-0.25-0.48-0.37-0.71c-0.95-1.81-2.91-2.8-5.03-2.46c-1.8,0.28-3.03,1.28-3.68,2.88
			C6.77,19.1,6.81,20.05,7.01,21c0.21,1.04,0.72,1.94,1.4,2.77c0.04-0.01,0.08-0.02,0.13-0.02h3.19l1.19-4.42
			c0.03-0.13,0.17-0.22,0.34-0.22c0.16,0,0.3,0.1,0.33,0.23l1.43,6.25l0.93-3.7c0.03-0.13,0.17-0.22,0.33-0.22
			c0.15-0.01,0.3,0.09,0.34,0.21l0.59,1.88h6.77c0.87-1.02,1.47-2.15,1.59-3.49C25.63,19.59,25.6,18.93,25.37,18.29z"/>
	</g>
	<g>
		<path class="st1" d="M77.85,15.26v15.93h-2.06V15.26H77.85z"/>
		<path class="st1" d="M81.61,22.85c0-1.18-0.02-2.15-0.09-3.09h1.84l0.12,1.89h0.05c0.57-1.09,1.89-2.15,3.78-2.15
			c1.58,0,4.04,0.94,4.04,4.87v6.83h-2.08V24.6c0-1.84-0.68-3.38-2.65-3.38c-1.37,0-2.43,0.97-2.79,2.13
			c-0.09,0.26-0.14,0.61-0.14,0.97v6.88h-2.08V22.85z"/>
		<path class="st1" d="M94.44,29.06c0.61,0.4,1.7,0.83,2.74,0.83c1.51,0,2.22-0.76,2.22-1.7c0-0.99-0.59-1.54-2.13-2.1
			c-2.06-0.73-3.02-1.87-3.02-3.24c0-1.84,1.49-3.35,3.95-3.35c1.16,0,2.17,0.33,2.81,0.71l-0.52,1.51
			c-0.45-0.28-1.28-0.66-2.34-0.66c-1.23,0-1.91,0.71-1.91,1.56c0,0.94,0.68,1.37,2.17,1.94c1.98,0.76,3,1.75,3,3.45
			c0,2.01-1.56,3.43-4.28,3.43c-1.25,0-2.41-0.31-3.21-0.78L94.44,29.06z"/>
		<path class="st1" d="M106.6,16.47v3.28h2.98v1.58h-2.98v6.17c0,1.42,0.4,2.22,1.56,2.22c0.54,0,0.94-0.07,1.2-0.14l0.1,1.56
			c-0.4,0.17-1.04,0.28-1.84,0.28c-0.97,0-1.75-0.31-2.25-0.87c-0.59-0.61-0.8-1.63-0.8-2.98v-6.24h-1.77v-1.58h1.77v-2.74
			L106.6,16.47z"/>
		<path class="st1" d="M114.23,16.54c0.02,0.71-0.5,1.28-1.32,1.28c-0.73,0-1.25-0.57-1.25-1.28c0-0.73,0.54-1.3,1.3-1.3
			C113.74,15.24,114.23,15.81,114.23,16.54z M111.92,31.19V19.75H114v11.44H111.92z"/>
		<path class="st1" d="M119.95,16.47v3.28h2.98v1.58h-2.98v6.17c0,1.42,0.4,2.22,1.56,2.22c0.54,0,0.94-0.07,1.21-0.14l0.09,1.56
			c-0.4,0.17-1.04,0.28-1.84,0.28c-0.97,0-1.75-0.31-2.25-0.87c-0.59-0.61-0.8-1.63-0.8-2.98v-6.24h-1.77v-1.58h1.77v-2.74
			L119.95,16.47z"/>
		<path class="st1" d="M134.84,28.07c0,1.18,0.03,2.22,0.1,3.12h-1.84l-0.12-1.87h-0.05c-0.54,0.92-1.75,2.13-3.78,2.13
			c-1.8,0-3.95-0.99-3.95-5.01v-6.69h2.08v6.33c0,2.17,0.66,3.64,2.55,3.64c1.39,0,2.36-0.97,2.74-1.89
			c0.12-0.31,0.19-0.68,0.19-1.06v-7.02h2.08V28.07z"/>
		<path class="st1" d="M140.81,16.47v3.28h2.98v1.58h-2.98v6.17c0,1.42,0.4,2.22,1.56,2.22c0.54,0,0.94-0.07,1.2-0.14l0.09,1.56
			c-0.4,0.17-1.04,0.28-1.84,0.28c-0.97,0-1.75-0.31-2.24-0.87c-0.59-0.61-0.8-1.63-0.8-2.98v-6.24H137v-1.58h1.77v-2.74
			L140.81,16.47z"/>
		<path class="st1" d="M147.14,25.85c0.05,2.81,1.84,3.97,3.92,3.97c1.49,0,2.39-0.26,3.17-0.59l0.35,1.49
			c-0.73,0.33-1.99,0.71-3.8,0.71c-3.52,0-5.62-2.32-5.62-5.77c0-3.45,2.03-6.17,5.36-6.17c3.73,0,4.73,3.28,4.73,5.39
			c0,0.43-0.05,0.76-0.07,0.97H147.14z M153.24,24.36c0.02-1.32-0.54-3.38-2.88-3.38c-2.1,0-3.02,1.94-3.19,3.38H153.24z"/>
	</g>
</g>
</svg>
