<?xml version="1.0" encoding="utf-8"?>
<!-- Generator: Adobe Illustrator 21.0.0, SVG Export Plug-In . SVG Version: 6.00 Build 0)  -->
<svg version="1.1" id="Layer_1" xmlns="http://www.w3.org/2000/svg" xmlns:xlink="http://www.w3.org/1999/xlink" x="0px" y="0px"
	 viewBox="0 0 919.9 188.3" style="enable-background:new 0 0 919.9 188.3;" xml:space="preserve">
<style type="text/css">
	.st0{fill:#7D705A;}
	.st1{fill:#A39B7A;}
	.st2{fill:#B1D055;}
	.st3{fill:#66933D;}
	.st4{fill:#42862F;}
	.st5{fill:#2A0F11;}
	.st6{fill:none;}
</style>
<g>
	<g>
		<path class="st0" d="M260.7,127.8h-39.5l-6.5,14.3h-15.4l33.9-75.6h15.6l33.9,75.6H267L260.7,127.8z M240.9,82.3l-14,32.2h28.1
			L240.9,82.3z"/>
		<path class="st0" d="M336.5,88.7l-22.7,53.6h-14.3l-22.8-53.6h14.4l7.3,17.6l8.2,22.5l8.1-22.3l7.3-17.8H336.5z"/>
		<path class="st0" d="M395.8,115.5c0,15.3-10.5,27.8-27.8,27.8c-17.3,0-27.7-12.4-27.7-27.8c0-15.2,10.6-27.8,27.5-27.8
			S395.8,100.2,395.8,115.5z M353.6,115.5c0,8.1,4.9,15.7,14.5,15.7s14.5-7.6,14.5-15.7c0-8-5.6-15.8-14.5-15.8
			C358.5,99.7,353.6,107.5,353.6,115.5z"/>
		<path class="st0" d="M444.1,142v-27.9c0-8.1-4.4-14.3-12.9-14.3c-8.1,0-13.6,6.8-13.6,14.9V142h-13.1V88.7h11.8l0.9,7.2
			c5.4-5.3,10.8-8,17.5-8c12.5,0,22.6,9.4,22.6,26.1v28H444.1z"/>
		<path class="st1" d="M491.5,142V66.4h14.2V142H491.5z"/>
		<path class="st1" d="M557.3,142v-27.9c0-8.1-4.4-14.3-12.9-14.3c-8.1,0-13.6,6.8-13.6,14.9V142h-13.1V88.7h11.8l0.9,7.2
			c5.4-5.3,10.8-8,17.5-8c12.5,0,22.6,9.4,22.6,26.1v28H557.3z"/>
		<path class="st1" d="M616.6,102.9c-3.8-3.6-8.1-4.8-13.2-4.8c-6.3,0-9.7,1.9-9.7,5.3c0,3.5,3.1,5.4,9.9,5.8
			c10,0.6,22.8,2.9,22.8,17.1c0,9.4-7.7,17.5-22.9,17.5c-8.4,0-16.9-1.4-24.6-9.5l6.5-9.4c3.8,4.2,12.4,7.3,18.4,7.5
			c5,0.1,9.6-2.5,9.6-6.4c0-3.7-3-5.2-10.6-5.6c-10-0.8-22-4.4-22-16.5c0-12.3,12.7-16.6,22.5-16.6c8.3,0,14.6,1.6,20.7,7
			L616.6,102.9z"/>
		<path class="st1" d="M653.5,73.8v15.1h14.7v11.3h-14.8v23c0,5.1,2.8,7.6,6.9,7.6c2.1,0,4.4-0.6,6.4-1.6l3.7,11.2
			c-3.8,1.5-6.9,2.2-10.9,2.3c-11.6,0.4-19.1-6.2-19.1-19.4v-23h-9.9V88.9h9.9V75.2L653.5,73.8z"/>
		<path class="st1" d="M692.3,73.8c0,10.3-15.6,10.3-15.6,0S692.3,63.5,692.3,73.8z M678,88.6V142h13.2V88.6H678z"/>
		<path class="st1" d="M721.6,73.8v15.1h14.7v11.3h-14.8v23c0,5.1,2.8,7.6,6.9,7.6c2.1,0,4.4-0.6,6.4-1.6l3.7,11.2
			c-3.8,1.5-6.9,2.2-10.9,2.3c-11.6,0.4-19.1-6.2-19.1-19.4v-23h-9.9V88.9h9.9V75.2L721.6,73.8z"/>
		<path class="st1" d="M759.6,88.8v27.9c0,8.1,4.4,14.3,12.9,14.3c8.1,0,13.6-6.8,13.6-14.9V88.8h13.1v53.4h-11.8l-0.9-7.2
			c-5.5,5.4-10.6,8-18,8c-12.7,0-22-9.6-22-26.1v-28H759.6z"/>
		<path class="st1" d="M829.4,73.8v15.1h14.7v11.3h-14.8v23c0,5.1,2.8,7.6,6.9,7.6c2.1,0,4.4-0.6,6.4-1.6l3.7,11.2
			c-3.8,1.5-6.9,2.2-10.9,2.3c-11.6,0.4-19.1-6.2-19.1-19.4v-23h-9.9V88.9h9.9V75.2L829.4,73.8z"/>
		<path class="st1" d="M865.2,120.1c0.9,6.6,6.6,11.3,15.9,11.3c4.9,0,11.2-1.8,14.3-5l8.4,8.3c-5.6,5.8-14.8,8.6-22.9,8.6
			c-18.4,0-29.3-11.3-29.3-28.4c0-16.2,11-27.9,28.3-27.9c17.8,0,29,11,26.9,32.9H865.2z M894.1,109.2c-0.9-6.9-6.3-10.4-13.8-10.4
			c-7.1,0-13,3.5-14.9,10.4H894.1z"/>
	</g>
	<g>
		<g>
			<path class="st2" d="M140,28.3c0,0,7.6,3.6,9.4-7.7c0,0-8-3.1-9.6,7c0,0,4.3-4.5,7-5C146.8,22.6,143.1,24.9,140,28.3z"/>
			<path class="st3" d="M67.8,99.5c0,0,3.8,7.4-7.4,9.5c0,0-3.3-7.8,6.6-9.7c0,0-4.3,4.4-4.7,7.1C62.3,106.4,64.5,102.7,67.8,99.5z"
				/>
			<path class="st4" d="M66.6,97c0,0-3.5,6.2-10.3-0.8c0,0,4-6,10.1,0.1c0,0-5.2-1-7.3,0C59.1,96.3,62.7,96.1,66.6,97z"/>
			<path class="st2" d="M69.1,97.8c0,0,6-1,5,7.3c0,0-6.2,0.5-5.3-6.9c0,0,2.1,4,3.9,4.9C72.7,103.2,70.6,100.9,69.1,97.8z"/>
			<path class="st2" d="M49.7,90.4c0,0,4.8-2.5,6.2,4.8c0,0-5.1,2.2-6.4-4.3c0,0,2.9,2.8,4.6,3C54.2,93.9,51.8,92.5,49.7,90.4z"/>
			<path class="st3" d="M46.3,90.1c0,0,4.4,0.4,2.2,6c0,0-4.4-0.7-2.5-5.7c0,0,0.7,3.2,1.8,4.1C47.9,94.5,46.8,92.4,46.3,90.1z"/>
			<path class="st4" d="M43.1,92.6c0,0,6.4,2.4,0.8,9.9c0,0-6.3-2.9-1.4-9.6c0,0-0.2,5.1,1.1,6.9C43.6,99.8,42.9,96.3,43.1,92.6z"/>
			<path class="st3" d="M39.8,93.7c0,0,3.9,6.1-5.6,8.9c0,0-3.5-6.5,4.9-9c0,0-3.4,4.2-3.5,6.5C35.6,100.1,37.2,96.8,39.8,93.7z"/>
			<path class="st4" d="M37,93.5c0,0-3,7.8-12.1,0.8c0,0,3.7-7.7,11.8-1.5c0,0-6.2-0.3-8.5,1.2C28.2,93.9,32.4,93.1,37,93.5z"/>
			<path class="st2" d="M37.6,92.8c0,0-6.2,0.1-4-8.1c0,0,6.3,0.4,4.4,7.6c0,0-1.5-4.4-3.2-5.5C34.8,86.9,36.6,89.6,37.6,92.8z"/>
			<path class="st3" d="M40,91.4c0,0-4.8-1.3-1.2-7.1c0,0,4.7,1.7,1.6,6.8c0,0-0.2-3.7-1.2-4.9C39.2,86.3,39.9,88.7,40,91.4z"/>
			<path class="st4" d="M34.2,82.3c0,0,1.6,4-4.2,4.5c0,0-1.3-4.2,3.9-4.7c0,0-2.4,2-2.8,3.4C31.1,85.6,32.4,83.8,34.2,82.3z"/>
			<path class="st2" d="M30,80.8c0,0,2.2,5.2-5.5,6.1c0,0-1.8-5.5,5-6.3c0,0-3.2,2.8-3.6,4.6C26,85.1,27.6,82.7,30,80.8z"/>
			<path class="st4" d="M26,79.9c0,0,0.6,4.3-5.3,3.4c0,0-0.2-4.4,4.9-3.6c0,0-2.9,1.4-3.5,2.6C22.2,82.3,23.9,80.9,26,79.9z"/>
			<path class="st3" d="M25.9,79c0,0-6,0.9-4.9-7.2c0,0,6.1-0.5,5.2,6.8c0,0-2-4-3.8-4.9C22.4,73.6,24.5,76,25.9,79z"/>
			<path class="st3" d="M29,79.2c0,0-5.6-2.8,0.3-9.1c0,0,5.5,3.3,0.3,8.9c0,0,0.7-4.6-0.3-6.5C29.3,72.5,29.6,75.8,29,79.2z"/>
			<path class="st4" d="M32.7,80.5c0,0-4.6-3.2,1.3-8c0,0,4.5,3.6-0.8,7.9c0,0,1.2-4,0.5-5.7C33.7,74.7,33.6,77.5,32.7,80.5z"/>
			<path class="st2" d="M35.9,81.2c0,0-2.7-6.3,6.7-7.3c0,0,2.2,6.6-6.1,7.6c0,0,3.9-3.3,4.3-5.5C40.8,75.9,38.8,78.8,35.9,81.2z"/>
			<path class="st4" d="M39.8,83c0,0,0-4.6,6.1-2.9c0,0-0.3,4.7-5.8,3.2c0,0,3.3-1.1,4.1-2.4C44.3,81,42.3,82.3,39.8,83z"/>
			<path class="st3" d="M50.6,86.6c0,0-4.1,1.4-4.4-4.5c0,0,4.3-1.1,4.6,4.1c0,0-2-2.6-3.3-3C47.5,83.3,49.2,84.7,50.6,86.6z"/>
			<path class="st2" d="M50.9,81.8c0,0-3.6,3.6-7-2.4c0,0,3.9-3.4,6.9,2c0,0-3.4-1.7-5-1.4C45.9,80,48.5,80.5,50.9,81.8z"/>
			<path class="st4" d="M50.9,78.2c0,0-3.8,2.4-5.5-3.5c0,0,4.1-2.1,5.6,3.1c0,0-2.6-2.1-4.1-2.2C46.9,75.6,49,76.6,50.9,78.2z"/>
			<path class="st3" d="M51.3,76.7c0,0-4-3,1.5-7.1c0,0,3.8,3.4-1.1,7c0,0,1.2-3.5,0.7-5.1C52.5,71.5,52.3,74.1,51.3,76.7z"/>
			<path class="st4" d="M52.1,77.5c0,0,0.8-4.7,6.6-1.8c0,0-1.2,4.7-6.3,2.2c0,0,3.5-0.5,4.6-1.6C57,76.2,54.7,77.2,52.1,77.5z"/>
			<path class="st3" d="M52.8,79.4c0,0,2.8-3.2,5.9,1.7c0,0-3.1,3-5.8-1.3c0,0,2.9,1.2,4.2,0.9C57,80.7,54.9,80.4,52.8,79.4z"/>
			<path class="st2" d="M54.4,83c0,0,0.4-3.7,5.1-1.8c0,0-0.7,3.8-4.9,2c0,0,2.7-0.6,3.5-1.5C58.2,81.7,56.4,82.6,54.4,83z"/>
			<path class="st4" d="M60.2,84.3c0,0-0.3-3-1.1-4c0,0,0.1,0.3,0.2,0.8c0,0.1,0.1,0.3,0.1,0.4v0c0.2,0.8,0.4,1.8,0.5,2.9v0
				c0,0,0,0,0,0c-0.2-0.1-1.2-0.4-1.7-1.2c-0.2-0.3-0.4-0.7-0.4-1.2c0,0,0-0.1,0-0.2c0-0.1,0-0.1,0-0.2c0-0.3,0-0.7,0.1-1
				c0-0.1,0.1-0.3,0.1-0.4c0.1-0.4,0.4-0.9,0.7-1.5C58.7,78.8,62.6,80,60.2,84.3z"/>
			<path class="st3" d="M64.9,84.4c0,0-4.6,0.5-3.5-5.8c0,0,4.8-0.1,3.8,5.4c0,0-1.4-3.2-2.8-3.9C62.4,80.1,63.9,82,64.9,84.4z"/>
			<path class="st2" d="M68.6,84.9c0,0-5.1-0.8-2.1-7.2c0,0,5.2,1.2,2.5,6.9c0,0-0.6-3.8-1.9-5C67.1,79.6,68.2,82,68.6,84.9z"/>
			<path class="st2" d="M70.1,85.2c0,0-1.8-5.5,6.1-5.8c0,0,1.4,5.7-5.6,6c0,0,3.4-2.6,4-4.4C74.5,81,72.7,83.4,70.1,85.2z"/>
			<path class="st2" d="M22.9,79.3c0,0-4.6,5.5-10-2.7c0,0,5.1-5.2,9.9,2c0,0-4.9-2-7.2-1.4C15.6,77.2,19.3,77.7,22.9,79.3z"/>
			<path class="st3" d="M71.8,96.9c0,0,4.1-3.7,7.4,3c0,0-4.4,3.5-7.4-2.5c0,0,3.6,2,5.4,1.8C77.1,99.1,74.4,98.4,71.8,96.9z"/>
			<path class="st3" d="M75,77.7c0,0-2.6-6-9.4-0.3c0,0,3.1,5.9,9.2,0.8c0,0-4.8,0.5-6.6-0.7C68.1,77.6,71.4,78.1,75,77.7z"/>
			<path class="st4" d="M70.9,73.6c0,0-0.9-7-9.7-3.1c0,0,1.5,7.1,9.3,3.7c0,0-5.2-1-6.7-2.7C63.7,71.4,67,72.9,70.9,73.6z"/>
			<path class="st2" d="M64.8,67.5c0,0-5.3-3.2-7.4,5c0,0,5.6,2.8,7.5-4.4c0,0-3.5,3-5.5,3.1C59.5,71.2,62.3,69.8,64.8,67.5z"/>
			<path class="st4" d="M57.8,66.8c0,0-5.1-2.9-6.9,5c0,0,5.5,2.5,7-4.5c0,0-3.2,3-5.1,3.2C52.9,70.5,55.5,69.1,57.8,66.8z"/>
			<path class="st3" d="M52.3,66.2c0,0-6-6.4-12.1,4c0,0,6.6,6,12.1-3.2c0,0-5.9,2.8-8.7,2.2C43.6,69.2,48,68.3,52.3,66.2z"/>
			<path class="st4" d="M42.8,60.4c0,0-5.2-3.2-7.3,4.8c0,0,5.5,2.8,7.4-4.3c0,0-3.4,2.9-5.4,3C37.6,63.9,40.4,62.6,42.8,60.4z"/>
			<path class="st4" d="M35.6,59.1c0,0-5.6-4.4-9.2,4.7c0,0,6.1,4,9.3-4c0,0-4.4,3-6.8,2.8C28.9,62.6,32.4,61.4,35.6,59.1z"/>
			<path class="st2" d="M33,56.6c0,0,2.9-6.6-6.9-7.9c0,0-2.4,7,6.3,8.1c0,0-4-3.6-4.5-5.9C27.8,50.9,29.9,54,33,56.6z"/>
			<path class="st3" d="M37.1,56.3c0,0,3.9-3.9-2.7-7.5c0,0-3.7,4.3,2.2,7.5c0,0-1.8-3.7-1.5-5.5C35.1,50.8,35.7,53.6,37.1,56.3z"/>
			<path class="st3" d="M30.2,57.5c0,0-4.5-7-11.9,1.6c0,0,5.1,6.8,11.8-0.9c0,0-6,1.6-8.5,0.5C21.5,58.7,25.8,58.7,30.2,57.5z"/>
			<path class="st4" d="M38.3,48.2c0,0,1.2-5.8-6.9-5.1c0,0-0.7,6,6.4,5.4c0,0-3.8-2.2-4.6-3.9C33.2,44.5,35.4,46.7,38.3,48.2z"/>
			<path class="st4" d="M38.2,42.6c0,0,1.7-5.9-6.7-5.9c0,0-1.3,6.1,6.2,6.1c0,0-3.8-2.6-4.4-4.5C33.2,38.4,35.3,40.7,38.2,42.6z"/>
			<path class="st3" d="M39.2,39.7c0,0,6.8-2.9,0.4-10.6c0,0-6.6,3.5-1,10.4c0,0-0.5-5.4,0.8-7.5C39.4,32,38.8,35.7,39.2,39.7z"/>
			<path class="st3" d="M39.8,42.7c0,0,6,4.4,9.5-5.1c0,0-6.4-4-9.6,4.4c0,0,4.5-3.2,7-3.1C46.7,38.9,43.1,40.3,39.8,42.7z"/>
			<path class="st2" d="M40.2,45.1c0,0,0.5,7.9,10.6,4.1c0,0-1.2-7.9-10.1-4.6c0,0,5.7,1.4,7.3,3.4C48,48,44.4,46.1,40.2,45.1z"/>
			<path class="st4" d="M48.5,58.3c0,0,6.1-2.7,0.2-9.6c0,0-6,3.2-0.8,9.4c0,0-0.5-4.9,0.6-6.8C48.5,51.3,48,54.7,48.5,58.3z"/>
			<path class="st5" d="M86.2,100.7c-0.7-0.6-1.3-1.1-1.7-1.5c0,0-0.1-0.1-0.1-0.1c0.1,0.1,0.2,0.1,0.3,0.2c0,0,0.1,0.1,0.1,0.1
				c0,0,0,0,0,0c0,0,0,0,0.1,0.1c0.1,0.1,0.3,0.2,0.4,0.4C85.6,100.1,85.9,100.4,86.2,100.7z"/>
			<path class="st5" d="M58.1,56.8c-0.3,0.6-0.6,1.1-1,1.6c-0.1-0.7-0.2-1.4-0.2-2.3C57.7,56.4,58.1,56.8,58.1,56.8z"/>
			<path class="st5" d="M59.9,84.5L59.9,84.5C59.9,84.5,59.9,84.5,59.9,84.5C59.9,84.5,59.9,84.5,59.9,84.5z"/>
			<path class="st5" d="M66.6,89.2c-0.9-0.2-2-0.4-3.2-0.5c0-0.1,0-0.2,0-0.3C63.4,88.5,65.1,88.3,66.6,89.2z"/>
			<path class="st5" d="M69.1,27.9c0,1.4-0.2,2.6-0.5,3.5c-0.2-1.1-0.3-2.3-0.3-3.6C68.8,27.9,69.1,27.9,69.1,27.9z"/>
			<path class="st5" d="M79.2,36.4L79.2,36.4c-0.1,0.3-0.3,0.5-0.4,0.7l0.3-2.9C79.1,34.2,79.1,35,79.2,36.4z"/>
			<path class="st5" d="M83.2,84.4c0,0,0,0.2-0.1,0.4c-0.4-0.3-0.8-0.7-1.2-1.1C82.3,84,82.7,84.2,83.2,84.4z"/>
			<path class="st5" d="M84.6,99.3c0,0-0.1-0.1-0.1-0.1c0,0-0.1-0.1-0.1-0.1C84.4,99.2,84.5,99.2,84.6,99.3z"/>
			<path class="st5" d="M86.7,88.4c-0.4-0.4-0.8-0.8-1.2-1.2c0,0-0.1-0.1-0.1-0.1c-0.4-0.4-0.9-0.8-1.3-1.3c0.8-0.2,1.8-0.4,3.1-0.4
				C87.2,85.5,87.5,87,86.7,88.4z"/>
			<path class="st5" d="M94.8,74.2c-0.1,0.2-0.2,0.5-0.4,0.7c-0.3-0.4-0.6-0.9-1-1.5C94.3,73.8,94.8,74.2,94.8,74.2z"/>
			<path class="st5" d="M99.3,59.3c-0.1,0-0.2,0-0.3,0c-0.5-1.4-0.7-2.7-0.8-3.8C99.5,57.2,99.3,59.3,99.3,59.3z"/>
			<path class="st5" d="M106.1,75c-0.1,0.6-0.2,1-0.3,1.4c0-0.5,0-1,0.1-1.5C105.9,75,106.1,75,106.1,75z"/>
			<path class="st5" d="M107.1,28.1c-0.5-0.6-1.1-1.1-1.8-1.6c0,0-0.1-0.1-0.1-0.1c-0.5-0.4-1.1-0.7-1.7-1c0,0,0,0,0,0
				c-8.3-3.9-7.6-9.1-7.6-9.1s1,5.1,10.6,7.3c0.1,0.1,0.1,0.2,0.2,0.2c0,0,0.1,0.1,0.1,0.1c0,0,0.1,0.1,0.1,0.1h0
				C107.2,25.7,107.2,27,107.1,28.1z"/>
			<path class="st5" d="M109.9,54.8c-0.3,2.1-0.9,3.4-1.6,4.2c0.3-1.4,0.6-2.9,0.8-4.4C109.6,54.7,109.9,54.8,109.9,54.8z"/>
			<path class="st5" d="M113.9,43.9c-3.3-1.4-2.4-5-2.4-5c0.9,0,1.6,0.1,2.2,0.3c0.1,0.8,0.1,1.5,0.1,2.2c0,0.2,0,0.3,0,0.5
				C113.9,42.6,113.9,43.2,113.9,43.9z"/>
			<path class="st5" d="M122.3,49.6c-0.4,0-0.9-0.1-1.2-0.2c0-0.4,0-0.8,0-1.2c0,0,0,0,0,0c0,0,0-0.1,0-0.1c0.1-0.6,0.2-1.3,0.3-1.9
				C122.9,47.6,122.3,49.6,122.3,49.6z"/>
			<path class="st5" d="M124,40.4c-0.4,1.9-1.1,3-1.9,3.6C122.7,42.6,123.4,41.3,124,40.4z"/>
			<path class="st5" d="M131.1,36.5c-0.2,0.6-0.5,1.2-0.8,1.8c0,0,0,0,0,0c-0.1,0.1-0.1,0.3-0.2,0.4l0,0c-0.6,1.1-1.1,2-1.6,2.7
				c-1.6-3.4,1.5-5.8,1.5-5.8C130.4,35.9,130.8,36.2,131.1,36.5z"/>
			<path class="st5" d="M132.7,43c-0.3,0.4-0.5,0.7-0.8,1C132.2,43.6,132.4,43.3,132.7,43z"/>
			<path class="st4" d="M83.2,84.4c0,0,0,0.2-0.1,0.4c-0.6,1.4-2.9,5.5-8.9,2.3c0,0,4.9-0.5,6.5-2c0,0-3.2,1.2-6.9,1.5
				c0,0,1.2-5.8,8-2.8C82.3,84,82.7,84.2,83.2,84.4z"/>
			<path class="st3" d="M86.7,88.4c-0.6,1.2-2,2.2-4.9,2.2c0,0,2.8-1.9,3.7-3.4c0.1-0.1,0.1-0.2,0.1-0.3c0,0-0.1,0.1-0.2,0.2
				c-0.6,0.6-2.1,2.1-4,3.3c0,0-0.9-3.4,2.7-4.5c0.8-0.2,1.8-0.4,3.1-0.4C87.2,85.5,87.5,87,86.7,88.4z"/>
			<path class="st3" d="M59.5,56.5c-0.4,0.7-0.7,1.3-1.1,1.9c-4.2,5.9-8.4,1.8-8.4,1.8c3.4-1.9,6.9-2.8,6.9-2.8
				c-2.3-0.4-6.9,2.1-6.9,2.1c2.8-5.3,6.3-4.7,8.2-3.8C59,56.1,59.5,56.5,59.5,56.5z"/>
			<path class="st3" d="M56.9,53.4c0,0,5.6-4.4-2.3-10c0,0-5.3,4.9,1.7,9.9c0,0-1.8-4.9-1.1-7.2C55.1,46.2,55.5,49.8,56.9,53.4z"/>
			<path class="st2" d="M57.9,54.7c0,0,5.5,4.5,9.3-4.4c0,0-5.9-4.2-9.4,3.8c0,0,4.5-2.8,6.8-2.6C64.6,51.4,61.1,52.5,57.9,54.7z"/>
			<path class="st4" d="M60.2,59.7c0,0,4.5,3.8,7.8-3.5c0,0-4.9-3.5-7.8,3c0,0,3.8-2.3,5.7-2.1C65.8,57.1,62.9,58,60.2,59.7z"/>
			<path class="st2" d="M71.8,64.9c0,0,7.2-0.4,3.9-9.7c0,0-7.3,1-4.3,9.2c0,0,1.4-5.2,3.2-6.6C74.6,57.8,72.7,61.1,71.8,64.9z"/>
			<path class="st4" d="M79.9,70.4c0,0,3.3-7.2-7.4-8.8c0,0-2.8,7.6,6.7,9c0,0-4.3-4-4.8-6.6C74.4,64.1,76.6,67.5,79.9,70.4z"/>
			<path class="st4" d="M94.8,74.2c-0.1,0.2-0.2,0.5-0.4,0.7c-4.4,7.8-9.3,3.1-9.3,3.1c3.4-2,7-2.8,7-2.8c-2.3-0.3-7,2.2-7,2.2
				c2.8-5.4,6.5-4.8,8.4-3.9C94.3,73.8,94.8,74.2,94.8,74.2z"/>
			<path class="st2" d="M82.3,68.8c0,0-0.9,7.3,9,5.6c0,0,0.3-7.5-8.5-6c0,0,4.9,2.3,6.1,4.4C88.9,72.7,86,70.3,82.3,68.8z"/>
			<path class="st3" d="M81.6,67.5c0,0,6.3-0.1,3.8-8.4c0,0-6.4,0.6-4.2,7.9c0,0,1.4-4.5,3.1-5.7C84.3,61.4,82.5,64.2,81.6,67.5z"/>
			<path class="st3" d="M75.9,50.9c0,0-3.9-7-11.6,0.8c0,0,4.6,6.8,11.4-0.1c0,0-5.9,1.1-8.2,0C67.4,51.6,71.5,51.9,75.9,50.9z"/>
			<path class="st4" d="M70.4,45.5c0,0-2.5-5.8-9.2-0.3c0,0,3,5.7,9,0.8c0,0-4.7,0.4-6.5-0.7C63.7,45.4,66.9,45.9,70.4,45.5z"/>
			<path class="st3" d="M64.7,40.4c0,0-3.8-6.2-10.5,1.2c0,0,4.4,6,10.4-0.5c0,0-5.3,1.2-7.5,0.3C57.1,41.3,60.9,41.4,64.7,40.4z"/>
			<path class="st3" d="M58.2,36.1c0,0-4.7-4.3-8.5,3.5c0,0,5.1,4,8.5-3c0,0-4.1,2.3-6.2,2.1C52.1,38.8,55.3,37.9,58.2,36.1z"/>
			<path class="st2" d="M60.5,33.9c0,0,6.1-5.5-3.5-11.4c0,0-5.8,6.1,2.8,11.3c0,0-2.5-5.6-1.9-8.2C57.9,25.7,58.6,29.9,60.5,33.9z"
				/>
			<path class="st4" d="M56.3,33.1c0,0,0.1-8-10.5-5c0,0,0.6,8.1,9.9,5.5c0,0-5.6-1.9-7.1-4C48.6,29.6,52.1,31.8,56.3,33.1z"/>
			<path class="st4" d="M68.1,27.8c0,0,0.1-8-10.5-5c0,0,0.6,8.2,10,5.5c0,0-5.7-1.9-7.2-4C60.4,24.3,63.9,26.5,68.1,27.8z"/>
			<path class="st3" d="M68.7,22.2c0,0,5-3.8-1.9-8.9c0,0-4.8,4.3,1.3,8.8c0,0-1.5-4.4-0.9-6.4C67.2,15.8,67.5,19,68.7,22.2z"/>
			<path class="st4" d="M70.3,24.9c0,0,7.5,3.2,8.7-7.9c0,0-7.9-2.6-9,7.2c0,0,4-4.6,6.6-5.1C76.6,19.1,73.2,21.5,70.3,24.9z"/>
			<path class="st4" d="M71,28c0,0,1.7,7.7,11.1,2.5c0,0-2.3-7.7-10.7-3.1c0,0,5.8,0.6,7.7,2.3C79.1,29.7,75.3,28.3,71,28z"/>
			<path class="st3" d="M79.9,33.1c0,0,6.4,2.4,7-6.9c0,0-6.7-1.9-7.2,6.3c0,0,3.1-4,5.3-4.5C85,28,82.2,30.2,79.9,33.1z"/>
			<path class="st2" d="M80.1,34.3c0,0-1.7,5.3,5.9,5.5c0,0,1.3-5.5-5.5-5.7c0,0,3.4,2.4,3.9,4.2C84.4,38.2,82.6,36,80.1,34.3z"/>
			<path class="st4" d="M82,46.8c0,0,6.5,2.3,7-7.1c0,0-6.7-1.8-7.2,6.5c0,0,3.1-4,5.3-4.6C87,41.6,84.2,43.8,82,46.8z"/>
			<path class="st3" d="M89.5,40.2c0,0,3.2-6.3-6.3-8c0,0-2.7,6.6,5.7,8.2c0,0-3.7-3.7-4-6C84.8,34.4,86.7,37.5,89.5,40.2z"/>
			<path class="st3" d="M91.3,40.3c0,0,6.7,1.5,6-7.8c0,0-6.9-1-6.3,7.3c0,0,2.6-4.4,4.6-5.2C95.6,34.6,93.2,37.1,91.3,40.3z"/>
			<path class="st2" d="M91.4,41.9c0,0-0.4,6.5,8.2,4.5c0,0-0.1-6.6-7.8-4.9c0,0,4.5,1.8,5.6,3.6C97.4,45.1,94.7,43.1,91.4,41.9z"/>
			<path class="st3" d="M102.2,61.5c-0.1,0-0.2,0-0.4,0c-12,1.1-10.4-7.6-10.4-7.6c4.4,2.3,7.9,5.4,7.9,5.4
				c-1.2-2.7-7.2-5.9-7.2-5.9c4.8-0.5,7.3,1,8.6,2.8C102.5,58.6,102.2,61.5,102.2,61.5z"/>
			<path class="st4" d="M99.4,49.3c0,0,6.6-0.6,3.2-9c0,0-6.6,1.1-3.7,8.6c0,0,1.1-4.8,2.7-6.2C101.7,42.7,100.1,45.8,99.4,49.3z"/>
			<path class="st3" d="M99.8,51.9c0,0,3.8,5.4,9.4-1.7c0,0-4.3-5.2-9.3,1.1c0,0,4.7-1.5,6.7-0.7C106.6,50.6,103.2,50.8,99.8,51.9z"
				/>
			<path class="st3" d="M109.5,45.8c0,0,0.4-6.6-8.5-4.5c0,0,0.2,6.7,8,4.9c0,0-4.6-1.8-5.7-3.6C103.3,42.6,106.1,44.6,109.5,45.8z"
				/>
			<path class="st4" d="M105.9,38c0,0-2.4-5.4-8.5-0.2c0,0,2.8,5.3,8.3,0.7c0,0-4.3,0.4-6-0.6C99.7,38,102.7,38.4,105.9,38z"/>
			<path class="st2" d="M102,34.3c0,0,1.1-7-8.5-5.8c0,0-0.6,7.2,8,6.2c0,0-4.7-2.4-5.7-4.5C95.7,30.1,98.5,32.6,102,34.3z"/>
			<path class="st3" d="M108.7,26.9c-0.8,5-5.6,4.8-5.6,4.8c1-3.1,2.6-5.8,3.3-6.9c0.2-0.4,0.4-0.6,0.4-0.6
				c-0.2,0.1-0.4,0.3-0.6,0.5c-1.9,1.9-3.6,6.5-3.6,6.5c-1.1-4.1-0.1-6.5,1.3-7.8c1.6-1.5,3.7-1.8,4.2-1.9c0.1,0,0.1,0,0.1,0
				c0,0.1,0,0.1,0,0.2h0C108.8,23.8,108.9,25.5,108.7,26.9z"/>
			<path class="st4" d="M107.6,35.9c0,0,6.1-2.4,0.6-9.4c0,0-6,2.9-1.1,9.2c0,0-0.3-4.8,0.9-6.6C107.9,29,107.3,32.3,107.6,35.9z"/>
			<path class="st3" d="M101,29.7c0,0,4.1-6.4-5.8-9.2c0,0-3.6,6.8,5.1,9.4c0,0-3.5-4.3-3.7-6.8C96.6,23,98.3,26.6,101,29.7z"/>
			<path class="st2" d="M96.1,19.5c0,0-3.2-8.2-12.7-0.8c0,0,3.9,8.1,12.4,1.5c0,0-6.5,0.4-8.9-1.2C86.8,19,91.3,19.9,96.1,19.5z"/>
			<path class="st4" d="M97,17.4c0,0,6.3,1.1,5.3-7.6c0,0-6.5-0.6-5.6,7.1c0,0,2.2-4.2,4.1-5.1C100.8,11.8,98.6,14.3,97,17.4z"/>
			<path class="st3" d="M96,15.8c0,0,3.7-6.9-6.7-9.1c0,0-3.2,7.3,6,9.3c0,0-4-4.2-4.3-6.8C91,9.3,93,12.8,96,15.8z"/>
			<path class="st4" d="M113,18.2c0,0,7.6,4.9,11-7c0,0-8.1-4.3-11.2,6.1c0,0,5.2-4.2,8.1-4.4C121,13,116.8,15,113,18.2z"/>
			<path class="st4" d="M113.5,19.3c0,0-2.6,4.7,4.5,6.3c0,0,2.3-5-4-6.5c0,0,2.7,2.9,2.9,4.7C116.8,23.9,115.5,21.4,113.5,19.3z"/>
			<path class="st3" d="M113.1,32.6c0,0,5.2,1.4,5-6c0,0-5.4-1-5.2,5.5c0,0,2.2-3.3,3.8-4C116.7,28.2,114.7,30.1,113.1,32.6z"/>
			<path class="st4" d="M113,40.6c-0.7-0.7-1.1-1.2-1.1-1.2c0.2,0.6,0.6,1.2,1.1,1.8c1.4,1.7,3.5,3.2,3.5,3.2
				c-1.4-0.1-2.6-0.3-3.5-0.7c-4.1-1.7-3-6.2-3-6.2c1.1,0,2,0.1,2.8,0.3c5.9,1.3,4.3,6.3,4.3,6.3C115.4,43,114,41.6,113,40.6z"/>
			<path class="st2" d="M118.1,40.8c0,0,6.1-2.9-0.1-9.8c0,0-5.9,3.5-0.5,9.5c0,0-0.7-5,0.4-6.9C118,33.7,117.6,37.1,118.1,40.8z"/>
			<path class="st3" d="M125.2,38.3c-0.1,0.5-0.1,0.9-0.2,1.3l0,0c-0.4,2.3-1.3,3.6-2.2,4.3v0c-2,1.6-4.4,0.5-4.4,0.5
				c2.2-2.6,4.8-4.4,4.9-4.5c-2,0.4-5.1,4-5.1,4C119.1,36.3,125.2,38.3,125.2,38.3z"/>
			<path class="st4" d="M124.8,38.2c0,0,5.3-4.2-2.2-9.5c0,0-5,4.7,1.6,9.4c0,0-1.7-4.7-1.1-6.8C123.1,31.3,123.5,34.7,124.8,38.2z"
				/>
			<path class="st3" d="M128.9,30.1c0,0,2.5-6.7-7.2-7.3c0,0-2,7,6.6,7.6c0,0-4.1-3.3-4.7-5.5C123.6,24.9,125.8,27.8,128.9,30.1z"/>
			<path class="st4" d="M128.6,22.6c0,0,2.6-6.9-7.5-7.6c0,0-2.1,7.3,6.9,7.9c0,0-4.3-3.4-4.9-5.8C123,17.1,125.3,20.1,128.6,22.6z"
				/>
			<path class="st2" d="M129.9,20c0,0,6.2-2.2,0.9-9.4c0,0-6.1,2.7-1.4,9.2c0,0-0.1-4.9,1.1-6.6C130.5,13.1,129.7,16.4,129.9,20z"/>
			<path class="st3" d="M131.1,22.7c0,0,6.3,3.6,8.5-6.1c0,0-6.7-3.1-8.7,5.5c0,0,4-3.7,6.3-3.9C137.2,18.2,133.9,20,131.1,22.7z"/>
			<path class="st4" d="M133,29.4c0,0,5.4,3.6,8.1-4.9c0,0-5.8-3.3-8.2,4.3c0,0,3.8-3,6-3C138.8,25.8,135.7,27.1,133,29.4z"/>
			<path class="st3" d="M132.6,34.5c0,0,4.7,5.2,9.7-3c0,0-5.2-4.9-9.6,2.4c0,0,4.7-2.2,7-1.7C139.6,32.2,136,32.9,132.6,34.5z"/>
			<path class="st2" d="M132.7,43C132.7,43,132.7,43,132.7,43c-0.3,0.4-0.6,0.7-0.8,1c-0.3,0.3-0.5,0.4-0.5,0.4
				c-0.8-2.6-1-5.1-1.1-6c0,0,0,0,0,0c0-0.2,0-0.3,0-0.3c-0.1,0.2-0.1,0.4-0.2,0.7l0,0c-0.3,2.1,0.7,5.5,0.7,5.5
				c-1.2-1-1.9-1.9-2.3-2.8c-1.6-3.4,1.5-5.8,1.5-5.8c0.4,0.3,0.7,0.6,1.1,1C134,39.4,133.5,41.6,132.7,43z"/>
			<path class="st4" d="M140.5,35.9c0,0,7.1-0.5,3.7-9.7c0,0-7.2,1.1-4.1,9.2c0,0,1.3-5.2,3.1-6.6C143.1,28.8,141.4,32.1,140.5,35.9
				z"/>
			<path class="st3" d="M146,33.3c0,0,6.1,1.1,5.2-7.2c0,0-6.2-0.7-5.5,6.8c0,0,2.2-4,4-4.9C149.8,27.9,147.6,30.3,146,33.3z"/>
			<path class="st2" d="M145.7,35.6c0,0,2,6.1,9.2,1.1c0,0-2.5-6-9-1.6c0,0,4.8,0,6.5,1.2C152.4,36.3,149.2,35.5,145.7,35.6z"/>
			<path class="st4" d="M143.5,37c0,0-5.3,4.7,2.9,9.8c0,0,5-5.2-2.2-9.8c0,0,2.1,4.8,1.5,7.1C145.7,44.2,145.1,40.6,143.5,37z"/>
			<path class="st2" d="M135.5,46c0,0,3.9,5.9,10.1-1.5c0,0-4.4-5.7-10,0.8c0,0,5.1-1.4,7.2-0.5C142.9,44.8,139.2,44.9,135.5,46z"/>
			<path class="st3" d="M132.9,60.1c0,0,6.4,3,7.9-6.5c0,0-6.7-2.6-8.1,5.9c0,0,3.6-3.8,5.9-4.2C138.6,55.2,135.5,57.2,132.9,60.1z"
				/>
			<path class="st4" d="M134.2,61.8c0,0-1.8,6.9,7.9,6.5c0,0,1.3-7.1-7.3-6.9c0,0,4.4,2.8,5.2,5C140,66.4,137.5,63.8,134.2,61.8z"/>
			<path class="st4" d="M129.7,87.8c0,0,6.9-1.5,2.3-10c0,0-6.9,2.1-2.8,9.6c0,0,0.5-5.2,2.1-6.9C131.3,80.5,130,83.9,129.7,87.8z"
				/>
			<path class="st3" d="M139.9,82.3c0,0,5.7-4.3-2.1-10c0,0-5.4,4.8,1.5,9.9c0,0-1.7-5-1-7.2C138.3,75.1,138.6,78.7,139.9,82.3z"/>
			<path class="st2" d="M144.7,69.4c0,0,2.9-6.5-6.7-7.7c0,0-2.4,6.8,6.1,8c0,0-3.9-3.5-4.4-5.8C139.7,63.8,141.7,66.8,144.7,69.4z"
				/>
			<path class="st4" d="M146.4,62c0,0,6.8-4.8-2.2-11.8c0,0-6.5,5.4,1.4,11.7c0,0-1.8-5.9-0.9-8.5C144.7,53.4,144.9,57.7,146.4,62z"
				/>
			<path class="st2" d="M151.8,51.7c0,0,2.2-6-6.6-6.5c0,0-1.7,6.3,6,6.8c0,0-3.8-2.9-4.3-4.9C146.9,47,148.9,49.7,151.8,51.7z"/>
			<path class="st4" d="M153.6,48.2c0,0,8.4,2.4,8.2-9.6c0,0-8.7-1.7-8.6,8.9c0,0,3.6-5.4,6.3-6.3C159.5,41.1,156.2,44.2,153.6,48.2
				z"/>
			<path class="st2" d="M162,50c0,0,11-1.6,4.7-15.4c0,0-11.1,2.5-5.5,14.8c0,0,1.4-8.1,4.1-10.6C165.3,38.7,162.9,44,162,50z"/>
			<path class="st3" d="M168.5,48.9c0,0,9.6,1.9,8.4-11.4c0,0-9.9-1.2-8.9,10.7c0,0,3.6-6.4,6.5-7.6C174.5,40.5,171,44.2,168.5,48.9
				z"/>
			<path class="st3" d="M151.2,32.5c0,0,4.7,6.5,11.4-2.2c0,0-5.3-6.2-11.3,1.4c0,0,5.7-1.8,8.2-1C159.5,30.8,155.4,31.1,151.2,32.5
				z"/>
			<path class="st4" d="M167.9,51.1c0,0-0.2,7,9.1,4.6c0,0-0.3-7.1-8.6-5c0,0,4.9,1.8,6.2,3.7C174.5,54.4,171.5,52.3,167.9,51.1z"/>
			<path class="st2" d="M161.9,53.8c0,0-0.4,5.8,7.4,4.1c0,0-0.1-5.9-7-4.4c0,0,4,1.6,5,3.3C167.3,56.7,164.9,54.9,161.9,53.8z"/>
			<path class="st2" d="M151.8,63c0,0,3.8,5.6,9.6-1.5c0,0-4.3-5.4-9.5,0.9c0,0,4.8-1.4,6.9-0.6C158.8,61.8,155.4,61.9,151.8,63z"/>
			<path class="st4" d="M154.9,80.4c0,0,3.3-3-1.9-6.2c0,0-3.1,3.3,1.5,6.1c0,0-1.4-3-1.1-4.4C153.5,75.9,153.9,78.2,154.9,80.4z"/>
			<path class="st4" d="M147.3,84.9c0,0-0.8,7.2,8.9,5.4c0,0,0.2-7.4-8.4-5.9c0,0,4.9,2.2,6,4.3C153.9,88.7,151,86.4,147.3,84.9z"/>
			<path class="st4" d="M140.3,90.8c0,0-6.7,2.8-0.4,10.5c0,0,6.5-3.4,1-10.2c0,0,0.4,5.4-0.8,7.4C140.1,98.4,140.7,94.7,140.3,90.8
				z"/>
			<path class="st3" d="M148.3,94c0,0-3.9,4.3,3.2,7.7c0,0,3.6-4.6-2.7-7.7c0,0,2.1,3.7,1.9,5.6C150.7,99.5,149.9,96.7,148.3,94z"/>
			<path class="st2" d="M151.3,93.5c0,0,2.2,5.3,8.3,0.4c0,0-2.6-5.3-8.1-0.9c0,0,4.3-0.3,5.8,0.7C157.4,93.7,154.4,93.2,151.3,93.5
				z"/>
			<path class="st4" d="M161.1,70.3c0,0,3.3-5.4-5.1-7.7c0,0-2.9,5.8,4.5,7.8c0,0-3.1-3.6-3.2-5.7C157.3,64.8,158.7,67.7,161.1,70.3
				z"/>
			<path class="st2" d="M160,72.4c0,0-0.8-5.4-7.5-2.3c0,0,1.2,5.4,7.2,2.7c0,0-4-0.7-5.2-2C154.5,70.9,157.1,72,160,72.4z"/>
			<path class="st3" d="M162.8,71.4c0,0,5.4,0.3,3.7-6.9c0,0-5.5,0.1-4.1,6.5c0,0,1.5-3.7,3-4.7C165.5,66.4,163.8,68.6,162.8,71.4z"
				/>
			<path class="st4" d="M162,73.8c0,0,3.7,5.3,9.3-1.7c0,0-4.2-5.1-9.2,1.1c0,0,4.6-1.4,6.6-0.7C168.7,72.5,165.3,72.6,162,73.8z"/>
			<path class="st3" d="M173.4,64.3c0,0,3.9-5.2-4.4-8.3c0,0-3.6,5.6,3.8,8.4c0,0-2.8-4-2.7-6.1C170.1,58.3,171.3,61.4,173.4,64.3z"
				/>
			<path class="st2" d="M174.9,63.6c0,0,6.4,4.4,9.7-5.7c0,0-6.9-4-9.8,5c0,0,4.6-3.5,7.1-3.6C181.9,59.3,178.2,60.9,174.9,63.6z"/>
			<path class="st3" d="M173.9,65.7c0,0,0,5.5,7.3,3.3c0,0-0.5-5.6-6.9-3.7c0,0,3.9,1.3,5,2.7C179.2,68.1,176.8,66.6,173.9,65.7z"/>
			<path class="st2" d="M177.7,76.3c0,0,7.1-1.4,2.5-10.2c0,0-7.1,2-3.1,9.8c0,0,0.7-5.3,2.3-7C179.4,68.9,178.1,72.4,177.7,76.3z"
				/>
			<path class="st3" d="M183.3,74.4c0,0,7.1-0.5,3.7-9.6c0,0-7.2,1.1-4.2,9.2c0,0,1.3-5.1,3.1-6.6C185.9,67.4,184.1,70.6,183.3,74.4
				z"/>
			<path class="st4" d="M183,76.5c0,0,1.3,7.1,10.1,2.6c0,0-1.9-7.1-9.7-3.2c0,0,5.3,0.7,7,2.4C190.4,78.3,186.9,76.9,183,76.5z"/>
			<path class="st3" d="M180.4,77.4c0,0-3.6,5.3,4.7,7.9c0,0,3.2-5.6-4.1-8c0,0,2.9,3.7,2.9,5.8C183.9,83.1,182.6,80.1,180.4,77.4z"
				/>
			<path class="st2" d="M175.9,88.2c0,0,3.6,5.8,9.8-1.2c0,0-4.1-5.6-9.7,0.5c0,0,4.9-1.2,7-0.3C183.1,87.2,179.6,87.2,175.9,88.2z"
				/>
			<path class="st4" d="M174.4,89.6c0,0-6,3.2,0.5,9.8c0,0,5.8-3.7,0.1-9.6c0,0,0.9,5-0.1,7C174.9,96.8,175.2,93.3,174.4,89.6z"/>
			<path class="st3" d="M177.6,91.1c0,0-1,7.4,9.1,5.8c0,0,0.4-7.6-8.6-6.3c0,0,5,2.4,6.1,4.6C184.3,95.3,181.4,92.8,177.6,91.1z"/>
			<path class="st3" d="M172.4,88.7c0,0-3.7-4.6-8.3,2.1c0,0,4.1,4.4,8.2-1.5c0,0-4.1,1.6-6,1C166.3,90.2,169.4,89.9,172.4,88.7z"/>
			<path class="st3" d="M152,46.4c0,0,4.8-3.3-1.5-8.3c0,0-4.6,3.8,0.9,8.2c0,0-1.3-4.1-0.6-5.9C150.9,40.3,151,43.4,152,46.4z"/>
			<path class="st3" d="M114.5,54.5c0,0,4.5,5.3,9.6-2.6c0,0-5-5-9.6,2c0,0,4.7-1.9,6.9-1.4C121.5,52.5,118,53,114.5,54.5z"/>
			<path class="st3" d="M111.8,64.4c0,0,6.6,4.2,9.5-6c0,0-7-3.7-9.6,5.3c0,0,4.5-3.7,7-3.8C118.6,59.9,115,61.6,111.8,64.4z"/>
			<path class="st2" d="M121.1,75c0,0,5.6-5.7-4-10.9c0,0-5.3,6.2,3.3,10.9c0,0-2.7-5.3-2.3-7.9C118.1,67.1,119,71.1,121.1,75z"/>
			<path class="st4" d="M126.3,63.6c0,0,1.3-7.9-9.5-6.6c0,0-0.7,8.1,8.9,7c0,0-5.3-2.8-6.4-5.1C119.3,58.9,122.4,61.6,126.3,63.6z"
				/>
			<path class="st4" d="M124.2,51.7c-0.7-0.1-1.2-0.2-1.8-0.3c-5.9-1.3-4.1-6-4.1-6c2.1,1.6,3.6,3.6,4.1,4.3c0,0,0,0,0,0
				c0.1,0.1,0.2,0.2,0.2,0.2c0-0.1-0.1-0.3-0.2-0.4c-0.8-1.8-3.7-4.3-3.7-4.3c2,0.2,3.3,0.8,4.1,1.5
				C125.1,48.7,124.2,51.7,124.2,51.7z"/>
			<path class="st2" d="M101.5,21.2c0,0,5.5,2.2,6.3-5.9c0,0-5.8-1.8-6.5,5.4c0,0,2.8-3.4,4.7-3.8C106,16.8,103.5,18.6,101.5,21.2z"
				/>
			<path class="st3" d="M111.1,18.6c0,0,2.9-6.7-7-7.9c0,0-2.4,7,6.4,8.1c0,0-4.1-3.6-4.5-5.9C105.9,12.9,108,16,111.1,18.6z"/>
			<path class="st4" d="M109.9,54.8c-0.3,2.1-0.9,3.4-1.6,4.2c-1.9,2.3-4.6,1.1-4.6,1.1c1.9-2.3,4.3-3.8,4.4-3.9
				c-1.8,0.4-4.6,3.4-4.6,3.4c0.7-5.2,4.1-5.2,5.6-5v0C109.6,54.7,109.9,54.8,109.9,54.8z"/>
			<path class="st3" d="M100.4,72.8c0,0,6.7,2.1,6.9-7.6c0,0-7-1.6-7.2,7c0,0,3-4.3,5.2-5C105.3,67.2,102.5,69.6,100.4,72.8z"/>
			<path class="st4" d="M93.8,63.6c0,0,3.4,6,10-0.8c0,0-4-5.8-9.8,0.2c0,0,5-1,7.1-0.1C101.1,62.9,97.5,62.7,93.8,63.6z"/>
			<path class="st4" d="M90.2,35.7c0,0,6.4-2.1,1.1-9.7c0,0-6.4,2.7-1.7,9.5c0,0,0-5,1.3-6.8C90.9,28.6,90.1,32,90.2,35.7z"/>
			<path class="st3" d="M79.2,36.4L79.2,36.4c-0.1,0.3-0.3,0.5-0.4,0.7c-1.2,1.7-3.3,1.8-3.3,1.8c0.8-3.4,2.4-6.2,2.4-6.2
				c-1.6,1.3-2.9,5.8-2.9,5.8c-1.5-4.2,0-6.2,1.6-7.2c1.1-0.7,2.3-0.9,2.3-0.9c0,0,0,0.1,0,0.1C79.9,33.3,79.8,35.1,79.2,36.4z"/>
			<path class="st3" d="M64.8,90.2c0,0,2,2.2,3.5,5c0,0-5.5,1-4.9-6.4c0-0.1,0-0.2,0-0.3c0,0,1.7-0.2,3.2,0.8c0,0,0,0,0,0
				c0,0,0,0,0,0c1.2,0.8,2.2,2.4,1.9,5.5C68.5,94.8,66.5,91,64.8,90.2z"/>
			<path class="st2" d="M69.1,27.9c0,1.4-0.2,2.6-0.5,3.5v0c-1.4,4.6-5.7,3.4-5.7,3.4c1.9-2.9,4.4-5.1,4.4-5.1
				c-2,0.7-4.7,4.5-4.7,4.5c0-3.1,1-4.7,2.2-5.5c0.6-0.4,1.2-0.6,1.8-0.8h0c0.4-0.1,0.8-0.1,1.2-0.1h0.2c0.1,0,0.1,0,0.2,0
				C68.8,27.9,69.1,27.9,69.1,27.9z"/>
			<path class="st6" d="M108.6,24.1c-0.8-0.1-1.6-0.3-2.3-0.5c-9.6-2.2-10.6-7.3-10.6-7.3"/>
			<path class="st5" d="M171.2,81.3c0,0-2-11.7,3.2-17.9c0,0-3.7,11.3-1.1,16.9L171.2,81.3z"/>
		</g>
		<polyline class="st6" points="78.5,178.2 78.5,178.2 78.5,178.2 		"/>
		<path class="st5" d="M176.8,90.8c-11.2-9.8-29.3-7.2-29.3-7.2c-1.5,2-3.4,3.7-3.4,3.7c1.8,4.2,6.8,6.1,6.8,6.1
			c-4.7,1.2-8.5-4.3-8.5-4.3c-8.9,6.2-18.5,5.8-18.5,5.8c0.3,7.6-2.2,13.5-5.1,17.9c-2.9,4.4-4.6,9.4-4.8,14.7
			c-0.1,2-0.1,4.2-0.1,6.4c0.1,11.9,1.7,17.6,3.1,27.2c2,8.2,9.1,13.9,17.4,20.5c-0.1-0.1-0.8,0-1-0.1c-0.5-0.1-0.9-0.1-1.4-0.2
			c-5-0.8-9.8-2.6-14.6-4.1c-3.9-1.2-8.1-1.3-12.2-1.3c-3.6,0-7.4,0.3-10.7,1.6c-1.5,0.6-2.8,1.6-4.3,2.1c-0.7,0.2-1.5,0.4-2.2,0.5
			c-3.4,0.5-6.4-0.6-8.1-1.3c0,0-0.1,0-0.1-0.1c0,0-0.1,0-0.1-0.1c0,0-0.1,0-0.1-0.1c-0.1,0-0.2-0.1-0.2-0.1c0,0-0.1,0-0.1,0
			c-0.1,0-0.1-0.1-0.2-0.1c0,0,0,0-0.1,0c0,0-0.1,0-0.1-0.1c-0.1,0-0.1-0.1-0.2-0.1c0,0-0.1,0-0.1,0c12.9-0.7,16.1-11.5,16.3-12.5
			c0,0,0,0,0,0c0,0,0,0,0,0c3.6-15.9,3.7-22.3,3.1-31.8c-0.5-7.4-1.4-12-1.4-12.4c0,0,0,0,0,0c-0.3-2.5-0.8-4.8-1.5-7
			c-2.2-6.6-6.1-11.2-8.8-13.8l0,0c-0.3-0.3-0.6-0.6-0.9-0.9c-0.1-0.1-0.3-0.3-0.4-0.4c0,0,0,0-0.1-0.1c0,0,0,0,0,0
			c0,0-0.1-0.1-0.1-0.1c-0.1-0.1-0.2-0.1-0.3-0.2c0,0,0,0-0.1-0.1c-0.1-0.1-0.1-0.1-0.2-0.2c-0.1-0.1-0.1-0.1-0.2-0.2
			c-0.3-0.2-0.5-0.3-0.5-0.3c-0.6-0.4-1.3-0.9-2-1.3c-4.2-2.4-9.4-2.2-13.3,0.6c-0.2,0.1-0.3,0.2-0.5,0.4c0,0-0.2-2.5,4.8-5.3
			c0,0-1.7-2.6-5.7-3.6c0,0,0,0,0,0c-1.5-1-3.2-0.8-3.2-0.8c0,0.1,0,0.2,0,0.3c-0.4,0-0.9,0-1.4,0c-0.5,0-0.9,0.1-1.4,0.1
			c-2.1,0.3-9.3,1.1-14.7,0.9c0,0-3.1,4.4-8.9,3.3c0,0,5.3-1.5,6.5-4.6c0,0-0.8-0.9-2.5-2.2c-0.7-0.5-1.5-1.1-2.4-1.7
			c-3.3-2.2-8.2-4.6-14.5-5.4c0,0,10.9,0.3,17.9,5.8c1.7,1.3,3.8,2.1,5.9,2.1c1.7,0.1,3.8,0,5.8-0.5c0,0-4.6-4.1-2.4-9.7
			c0,0,2,7.7,5.6,7.8c0,0,1.1-0.1,2.9-0.2c0,0,0,0,0,0v0c3.9-0.2,10.8,0,14.4,3.1c0.9,0.8,1.9,1.5,3.1,2c0.8,0.3,1.8,0.6,2.8,0.8
			c1.5,0.2,2.9,0.6,4.3,1.3c4.4,1.9,7.8,5.5,10.2,8.9c-0.7-1.9-1.6-3.6-2.7-5.3c-1.4-2.1-3.1-4.5-5.3-6.8c0.7-1.4,0.5-2.9,0.5-2.9
			c-1.3,0-2.3,0.1-3.1,0.4c-0.4-0.3-0.7-0.7-1.1-1c0.1-0.2,0.1-0.4,0.1-0.4c-0.5-0.3-0.9-0.5-1.4-0.7c-2.1-1.9-4.1-3.9-6-6
			c-2.4-2.8-5.3-6.4-7.5-9.9c-0.5-0.8-1.4-1.3-2.3-1.3c-4.4,0.1-17.8,0-22-6c-0.5-0.7-1.2-1.1-2-1.2l-10.8-1.9l10.3-0.9
			c0,0-4.1-6.9-2.7-16.4c0,0,1.3,23.8,20.4,23.1c0,0-1.3-1.2-2-3.6c-0.1-0.4-0.2-0.8-0.3-1.2c0.3-0.5,0.6-1,1-1.6
			c0,0-0.4-0.4-1.1-0.7c0-0.3,0-0.5,0-0.8c0-0.4,0.1-0.8,0.1-1.2c0,0,0.2,0.6,0.5,1.4c0.3,0.7,0.6,1.5,1.1,2.4
			c1.2,2.4,2.9,5,4.8,5.1h5.4c0.7,0,1.4,0.3,1.7,0.9c0.5,0.8,1.4,2,2.3,3.3c0,0,0,0,0,0c0.2,0.2,0.4,0.5,0.6,0.8
			c2,2.6,4.4,5.3,5.9,5.6c0,0,0.3-3.2,2-6c0,0,0.4,2.9,0.4,5.5c0,1.9,1,3.8,2.6,4.8c2.6,1.6,6.4,4.1,9,6.7c0.7,0.7,2,0.5,2.4-0.5
			c0.3-0.9,0.6-2,0.6-3.4c0-2.2-0.7-4.3-2-6c0.1-0.2,0.2-0.4,0.4-0.7c0,0-0.5-0.4-1.3-0.8c-2-3.2-4.7-8.4-6-13
			c-0.5-2-1.8-3.7-3.4-4.9c-3.6-2.6-10.2-6.9-14.6-12c-1.9-2.3-4.2-4.3-6.7-5.8c-2-1.3-4.4-2.5-6.5-2.9c0,0,8-2,16,7
			c-0.1-0.2-2.7-4.2-3.6-10.3c0.3-0.9,0.5-2.1,0.5-3.5c0,0-0.3-0.1-0.8-0.1c0-1.6,0.1-3.3,0.3-5c0,0,2.5,14.5,9.6,19.1l0.6-4.9
			c0.2-0.2,0.3-0.4,0.4-0.7c0.3,4.4,1.5,14.1,7.5,15.4c0,0,3.5-8.7,3.5-14.5c0,0,1.2,9.3,0.8,17.9c-0.1,2.8,0.6,5.6,2,8
			c1.5,2.5,3.6,5.7,6.1,8.6c1.1,1.3,1.9,2.8,2.3,4.5c0.5,2.1,1,5.1,1.2,8.7v0.6c0,5.4,1.3,10.6,3.8,15.3c0.2-0.2,0.4-0.4,0.6-0.6
			c5.8-6.1,4.1-10,4.1-10.2c0,0,0,0,0,0c-0.1-0.3-0.1-0.6-0.2-0.8c-0.3-1-1-1.9-1.9-2.5c-3.3-2.5-3.6-7.4-3.6-7.4
			c0.1-1,0.1-1.9,0.2-2.8c0,0,0,0,0,0c0.1-0.4,0.3-0.9,0.3-1.4c0,0-0.1,0-0.3-0.1c0-1.5,0-2.8-0.1-3.8c-0.1-2-0.4-3.1-0.7-3.7
			c0,0,0-0.1-0.1-0.1c-0.2-0.5-0.4-0.6-0.4-0.6c-0.5-0.4-0.9-0.7-1.3-1.1c-0.5-0.4-0.9-0.9-1.3-1.3c-0.4-0.5-0.8-1-1.2-1.5
			c0,0,0-0.1-0.1-0.1c-0.3-0.4-0.5-0.8-0.7-1.2c-0.3-0.5-0.5-0.9-0.7-1.4c-0.1-0.3-0.3-0.6-0.4-0.9c0.1,0,0.2,0,0.3,0c0,0,0,0,0,0
			c0,0,0,0,0-0.1c0-0.5,0-2.2-1-3.7c0-0.5,0-0.9,0-1.3c0.1-2.7,0.9-4.6,0.9-4.6c0.1,2.5,0.6,4.5,1.4,6.2c0.4,0.8,0.8,1.6,1.3,2.3
			c2.3,3.4,5.3,4.8,5.3,4.8c0.5-1.2,0.9-2.5,1.2-3.8c0.7-0.8,1.3-2.2,1.6-4.2c0,0-0.3-0.1-0.7-0.2c1-7.2,0.6-14.3,0.6-14.3
			c-5-2.5-7.7-8.8-7.9-9.2c2.5,4,8,6.2,8,6.2c0.2-1.2,0.2-2.3,0-3.4c-0.3-2-1.1-3.6-1.9-4.8c0,0,0,0,0,0c0,0,0,0,0,0
			c-0.2-0.3-0.5-0.7-0.7-1c0,0,0-0.1-0.1-0.1c0-0.3,0.1-0.6,0.1-0.9c0-0.7-0.1-1.4-0.2-2.3c-0.1-0.3-0.1-0.5-0.2-0.8
			c0.5,0.5,1.3,0.5,1.9,0c0,0,0,0,0.1-0.1c2.3-2.1,3.5-7.3,3.5-7.3c1.8,4.6-1.9,8.9-1.9,8.9c2,3.8,2.9,8.4,3.3,12.5
			c0,0.4,0.1,0.7,0.1,1.1c-0.6-0.2-1.4-0.2-2.2-0.3c0,0-0.9,3.6,2.4,5V44c0,2.9-0.2,4.8-0.2,4.8c4.1-2.3,4.2-7.5,4.2-7.9
			c0.5,5.1-1.4,9.4-2.9,11.9c-1.5,2.5-2.7,5.3-3.3,8.2c-1.7,7.6-0.9,15.4,3.3,16.2c5.3,1,9.7-5.6,9.7-5.6c1.7-2.4,2.3-4.8,2.4-6.8
			c0-2.9-1.1-5.7-3-7.8c-0.8-0.9-1.4-1.7-1.8-2.6c-0.3-0.6-0.5-1.2-0.7-1.8c0,0,0,0,0,0c-0.1-0.5-0.2-1-0.3-1.4
			c0-0.3-0.1-0.5-0.1-0.8c0-0.3,0-0.5,0-0.8c0.4,0.1,0.8,0.1,1.2,0.2c0,0,0-0.1,0-0.2c0-0.1,0-0.2,0.1-0.3c0.1-0.7,0.1-2-0.9-2.9
			c0-0.1,0.1-0.3,0.1-0.4c0.1-0.5,0.3-1,0.4-1.4c0-0.1,0.1-0.3,0.1-0.4c0.8-0.6,1.5-1.7,1.9-3.6c0.3-0.5,0.7-1,1.2-1.4
			c0.2-0.2,0.3-0.3,0.5-0.5c5.2-4.9,3.5-17.4,3.5-17.4c4.1,5.7,3.5,11.3,2,15.4c-0.3-0.3-0.7-0.6-1.1-1c0,0-3.1,2.5-1.5,5.8
			c-0.6,0.9-1.1,1.5-1.1,1.5c-4.9,6,0,9.1,0,9.1c1.2-3.2,2.7-5.9,4.5-8.1c0.1-0.1,0.3-0.3,0.5-0.5c0,0,0.1-0.1,0.1-0.1
			c0.1-0.1,0.1-0.2,0.2-0.3c0,0,0,0,0,0c0,0,0,0,0,0c6.5-7.6,14.8-9.4,15.1-9.5c-13.5,7.6-18.3,22.1-18.3,22.1c3.2,2.8,3.9,8,4,10
			c0,0.5,0.1,0.9,0,1.4c-0.7,8.4-14,16.6-14,16.6c2.5,1.1,3.2,5.8,3.2,5.8c8.9,0.4,16-4.6,19.8-8c1.8-1.6,2.7-4,2.5-6.5
			c-1-9.9,4.1-15.7,4.1-15.7c3.6-3.7,2.9-12.5,2.9-12.5c1.6,1.7,2.2,7.4,2.2,7.4c5.6-5.8,16.7-4.6,16.7-4.6
			c-21.3,5.2-23.1,20.7-22.9,26.8c0.1,2,1.5,3.7,3.4,4c1.7,0.3,1.8,0.5,3.4,0.4c3.3-0.1,6.5-10.2,6.5-10.2c1.8,5.7-2.7,11-2.7,11
			c2.3,0.3,9.8,2.2,9.8,2.2c0.8-1.1,1.7-2.1,2.7-2.9c0.6-0.5,1.2-1,1.8-1.5c6.2-4.6,12.8-4.6,12.9-4.6c-9.2,2-14.9,10.2-14.9,10.2
			C174.9,86.8,176.7,90.7,176.8,90.8z"/>
	</g>
</g>
</svg>
